<?xml version="1.0" encoding="utf-8"?>
<!-- Generator: Adobe Illustrator 26.2.1, SVG Export Plug-In . SVG Version: 6.00 Build 0)  -->
<svg version="1.1" id="레이어_1" xmlns="http://www.w3.org/2000/svg" xmlns:xlink="http://www.w3.org/1999/xlink" x="0px"
	 y="0px" viewBox="0 0 180 180" style="enable-background:new 0 0 180 180;" xml:space="preserve">
<style type="text/css">
	.st0{opacity:0.5;}
	.st1{fill:none;stroke:#FFFFFF;stroke-width:0.75;stroke-linecap:round;stroke-linejoin:round;stroke-miterlimit:10;}
</style>
<g>
	<g class="st0">
		<path class="st1" d="M7.31,59.78l2.26,15.25L15.91,74l10.62-3.48l-1.21-5.59l-1.41-8.15L7.31,59.78l16.61-3l1.41,8.15l26.73-2.62
			c0,0-1.15-7.44-1.21-7.84c8.2-1.6,16.27-2.69,16.27-2.69l2.25,14.18l-14.92,4.86l-2.38-8.51l2.38,8.51l14.92-4.86l-1.03-6.52
			l27.63-5.15l0.41-3.9l14.89-3.13l3.45,13l-15.57,4.81l-3.18-10.79l3.18,10.79l7.71-2.38l3.62,36.62l7.12-1.52l2.73,13.23
			l-15.24,5.04l-3.29-14.81l8.68-1.95l-8.68,1.95l3.29,14.81l7.05-2.33l2.65,35.62l7.57-1.13l3.08,13.45l-14.9,4.73l-3.96-15.38
			l8.2-1.68l-8.2,1.68l1.67,6.48l-28.19,3.75l1.57,6.86l-15.82,3.59l-3.68-15.44l16.13-3.78l1.79,8.77l-1.79-8.77l-16.13,3.78
			l1.28,5.39l-27.04,3.83l1.71,7.43l-16.32,3.47L18.71,161l14.96-3.17l2.71,7.66l-2.71-7.66l-6.27,1.33l-3.29-35.78l-7.51,2.09
			l-4.11-15.28l15.61-3.24l4.03,14.48l-8.02,1.95l8.02-1.95l-4.03-14.48l-6.22,1.55L15.91,74"/>
		<path class="st1" d="M36.83,104.77l23.78-29c10.07,3.41,33.78,15.75,33.78,15.75l-21.6,28.62l21.6-28.62l5.16,26.06l-18.97,28.25
			l-7.79-25.69l7.79,25.69l-37.03-18.97L36.83,104.77l35.96,15.36"/>
	</g>
	<g class="st0">
		<g>
			<path class="st1" d="M171.71,19.2l-10.49-2.05l-0.68,3.88l-1.39,6.77l5.55,0.7l5.2,0.88L171.71,19.2l-1.81,10.17l-5.2-0.88
				l-5.16,24.26l4.08,1.14l-1.72,9.96l-10.69-2.03l2.06-10.25l6.28,1.18l-6.28-1.18l-2.06,10.25l5.91,1.12l-6.07,24.18l4.71,0.96
				l-1.29,9.88c-5.4-0.26-11.27-1.34-11.27-1.34l1.76-10.5l6.08,1l-6.08-1l-0.8,4.55l-19.98-4.92l-1.45,5.4l-10.24-1.56l1-10.7
				l11.23,2.62l-0.54,4.24l0.54-4.24l-11.23-2.62l-0.16,4.39l-19.06-3.95l-0.87,4.61l-10.93-1.09l1.82-10.71l10.67,2.11l-0.68,5.08
				l0.68-5.08l-5.55-1.1l6.47-24.63l-5.52-0.62l2.24-10.13l10.77,1.93l-1.65,9.82l-5.84-0.99l5.84,0.99l1.65-9.82l-5.36-0.96
				l5.68-24.74l-5.13-0.56l2.7-10.38l9.95,2.22l-1.75,9.53l-5.77-0.81l5.77,0.81l0.85-4.64l18.85,4.9l1.07-5.01l10.47,1.79
				l-1.41,10.29l-10.95-1.73l0.82-5.34l-0.82,5.34l10.95,1.73l0.75-5.27l20.49,4.17"/>
		</g>
		<path class="st1" d="M113.86,68.39c0,0,7.71,0.3,10.78,0.08c3.06-0.22,9.78-1.29,9.78-1.29s-6.71,1.06-9.78,1.29
			c0,0,2.38-9.61,3.46-16.39c1.08-6.78,1.1-15.68,1.1-15.68s8.88,0.95,13.68,2.14s5.25,5.18,4.47,7.7c0.78-2.52,0.33-6.51-4.47-7.7
			S129.2,36.4,129.2,36.4s-5.67-0.7-8.45-1.16c-2.78-0.46-9.44-0.96-10.99,5.4"/>
	</g>
</g>
</svg>
