<?xml version="1.0" encoding="utf-8"?>
<!-- Generator: Adobe Illustrator 26.2.1, SVG Export Plug-In . SVG Version: 6.00 Build 0)  -->
<svg version="1.1" id="레이어_1" xmlns="http://www.w3.org/2000/svg" xmlns:xlink="http://www.w3.org/1999/xlink" x="0px"
	 y="0px" viewBox="0 0 180 180" style="enable-background:new 0 0 180 180;" xml:space="preserve">
<style type="text/css">
	.st0{opacity:0.5;fill:none;stroke:#FFFFFF;stroke-width:0.75;stroke-linecap:round;stroke-linejoin:round;stroke-miterlimit:10;}
	.st1{opacity:0.5;}
	.st2{fill:none;stroke:#FFFFFF;stroke-width:0.75;stroke-linecap:round;stroke-linejoin:round;stroke-miterlimit:10;}
</style>
<g>
	<path class="st0" d="M95.32,4.5c0.53,1.7-0.56,5.05-4.35,5.82c-3.78,0.76-6.61,2.47-5.88,4.92c0.73,2.45,1.44,4.36,5.44,5.29
		c4.01,0.92,5.78,1.95,5.22,4.44c-0.56,2.49-3.71,2.94-6.26,2.9c-2.55-0.04-4.68,0.63-5.26,2.53c-1.08-1.82-1.18-3.47-0.53-4.71
		s1.51-1.72,2.48-1.96c0.98-0.24,1.53-0.79-0.58-2.51s-4.77-4.08-4.15-7.05c0.62-2.97,1.87-5.18,4.96-6.84S88.97,4.86,86,1.94"/>
	<path class="st0" d="M145.81,71.99l-19.66,9.06l0.98,2.26l-4.01,1.79l1.2,4.09c0,0-14.8-4.98-20.6-5.61
		c-5.8-0.62-7.83,0.94-9.08,2.7c1.25-1.76,3.28-3.32,9.08-2.7c5.8,0.62,20.6,5.61,20.6,5.61l7.49,23.88l-12.23,6.12
		c0,0-4.76-1.75-6.72-2.67c-1.96-0.92-6.89,1.23-3.28,5.11s3.49,3.3,3.49,3.3s-7.42-6.03-10.2-8.06c-2.79-2.03-5.91,1.05-3.23,4.81
		s5.11,6.57,5.11,6.57s-4.28-4.04-7.15-6.88c-2.87-2.84-7.89-0.84-4.54,3.9c3.35,4.73,4.15,5.62,4.15,5.62s-3.43-3.98-4.94-5.17
		c-1.51-1.19-6.32,0.12-3.13,4.65c3.18,4.53,2.85,4.11,2.85,4.11l-3.15,0.84c0,0-1.42,0.38-2.59-0.46
		c-1.17-0.84-0.56-2.58-0.56-2.58l2.31-2.62l-2.31,2.62c0,0-3.12,1.52-5.29-0.25c-1.47-1.19-2.08-3.67-0.38-5.32
		c3.36-3.27,12.24-12.18,12.24-12.18s-8.88,8.91-12.24,12.18c0,0-3.48,2.43-5.69,0.31c-2.21-2.12-1.06-5.36-1.06-5.36l12.97-13.75
		l-12.97,13.75c0,0-2.44,1.31-4.14-0.35c-0.59-0.58-0.89-1.18-1-1.77c-0.34-1.76,0.98-3.32,0.98-3.32s13.44-16.5,16.27-18.82
		c2.83-2.32,6.87-4.6,10.49-2.16s6.66,3.61,9.27,3.5c2.61-0.11,4.03-3.06,1.64-5.24c-2.39-2.17-8.92-5.95-10.54-6.41
		s-3.07-0.78-3.07-0.78s-6.67-2.99-14.06,1.59s-10.53,6.82-14,5.87c-1.44-0.39-1.91-0.35-1.91-0.35l0.21-1.58l-4.62-1.25l0.12-3.99
		l-10.86-1.98l10.86,1.98l-0.12,3.99l-3.43,28.04l-1.15,5.65L30.7,123.1l23.48,1.19l1.15-5.65l4.51,0.11l3.33-25.32l-2.82,21.43
		l7.76,4.69c0.11,0.59,0.41,1.19,1,1.77c1.69,1.66,2.86,0.48,2.86,0.48l1.28-0.13c0,0-1.15,3.23,1.06,5.36
		c2.21,2.12,5.69-0.31,5.69-0.31c-1.7,1.65-1.09,4.13,0.38,5.32c2.18,1.77,5.29,0.25,5.29,0.25s-0.61,1.74,0.56,2.58
		c1.17,0.84,1.32,0.59,1.32,0.59l4.43-0.97l1.29,1.78c0,0,2.21,2.44,4.36,0.79c2.15-1.64,0.99-4.25,0.99-4.25s2.54,3.95,5.57,1.6
		c3.03-2.35,1.48-5.35,1.48-5.35s3.71,3.15,6.53,1.07c2.82-2.08,1.73-4.57,1.73-4.57s2.74,1.21,5.05-1.2
		c2.31-2.4,0.59-5.14,0.59-5.14l12.23-6.12l1.23,4.11l4.34-0.58l-10.24-33.3l10.98,35.73l11.18-2.51"/>
	<path class="st0" d="M131.64,33.62c-2.55,2.55-2.64,7.96-2.64,7.96s-0.46-5.24-3.17-7.96c-2.72-2.72-6.84-2.26-6.84-2.26
		s4.88,0.32,6.69-1.49s2.63-8.03,2.63-8.03s0.11,5.03,2.88,7.81s7.23,2.51,7.23,2.51S133.36,31.9,131.64,33.62z"/>
	<path class="st0" d="M62.47,148.62c2.55,2.55,7.96,2.64,7.96,2.64s-5.24,0.46-7.96,3.17c-2.72,2.72-2.26,6.84-2.26,6.84
		s0.32-4.88-1.49-6.69c-1.81-1.81-8.03-2.63-8.03-2.63s5.03-0.11,7.81-2.88s2.51-7.23,2.51-7.23S60.76,146.91,62.47,148.62z"/>
	<path class="st0" d="M115.31,148.32l2.91,26.98l6.29-6.75l8.43,9.5l2.91-3.37l-7.66-9.5l7.66-6.44
		C135.85,158.74,126.65,153.07,115.31,148.32z"/>
	<g class="st1">
		<path class="st2" d="M63.57,31.99c0,0-7.98,23.86,12.01,28.6s25.36-16.54,26.13-19.24c0.77-2.7-8.42-6.14-17.82-8.49
			s-18.36-2.66-18.97-0.94c-0.61,1.71,7.74,6.11,16.58,7.95s18.52,3.72,20,1.32c-0.37,0.6-1.21,0.92-2.39,1.03
			c0,0-1.86-4.15-15.69-7.53s-16.01-0.88-16.01-0.88"/>
		<path class="st2" d="M103.33,49.06c0,0-0.23-1.47,1.17-0.82c1.4,0.65-0.36,3.92-2.32,2.97c-1.96-0.95-2.9-1.77-2.17-4.25
			c0.73-2.48,3.83-4.5,7.4-2.4c3.57,2.1,5.36,7.51,1.58,10.61s-14.57,0.63-16.83,2.55c-2.26,1.93-2.42,3.94-0.8,4.69
			c1.61,0.75,2.93-1.94,2.02-2.44"/>
		<path class="st2" d="M66.99,56.14c0,0-6.44-1.64-7-0.1c-0.56,1.54,7.07,5.19,15.49,7.15c8.42,1.96,14.73,3.26,15.33,2.09
			c0.6-1.16-7.48-4.13-7.48-4.13"/>
		<path class="st2" d="M64.5,52.92c0,0-14.99-1.36-15.61,0.92s-0.24,3.61-0.24,3.61s6.39,6.42,26.79,10.81s26.51,3.51,27.6,2.36
			c1.09-1.16,1.59-2.23,1.26-2.92C103,65,88.53,59.73,88.53,59.73"/>
		<path class="st2" d="M48.78,54.25c0,0,1.25,6.95,26.31,12.22c25.06,5.28,29.27,2.05,29.27,2.05"/>
	</g>
</g>
</svg>
