<?xml version="1.0" encoding="utf-8"?>
<!-- Generator: Adobe Illustrator 26.2.1, SVG Export Plug-In . SVG Version: 6.00 Build 0)  -->
<svg version="1.1" id="about_x5F_img_x5F_bg" xmlns="http://www.w3.org/2000/svg" xmlns:xlink="http://www.w3.org/1999/xlink"
	 x="0px" y="0px" viewBox="0 0 862 390" style="enable-background:new 0 0 862 390;" xml:space="preserve">
<style type="text/css">
	.st0{fill:none;stroke:#FFFFFF;stroke-width:0.75;stroke-linecap:round;stroke-linejoin:round;stroke-miterlimit:10;}
</style>
<path id="flash1" class="st0" d="M368.26,121.27c3.25-3.25,3.36-10.13,3.36-10.13s0.58,6.68,4.04,10.13
	c3.46,3.46,8.72,2.88,8.72,2.88s-6.22-0.41-8.53,1.89s-3.35,10.23-3.35,10.23s-0.14-6.41-3.67-9.95c-3.54-3.54-9.21-3.19-9.21-3.19
	S366.08,123.46,368.26,121.27z"/>
<path id="flash2" class="st0" d="M556,345.59c5.5,5.5,17.17,5.7,17.17,5.7s-11.31,0.99-17.17,6.85c-5.86,5.86-4.87,14.77-4.87,14.77
	s0.7-10.54-3.21-14.45c-3.91-3.91-17.34-5.67-17.34-5.67s10.86-0.23,16.85-6.22s5.41-15.61,5.41-15.61S552.29,341.88,556,345.59z"/>
<path id="flash13" class="st0" d="M817.19,65.22c-3.33-3.33-3.44-10.38-3.44-10.38s-0.6,6.84-4.14,10.38
	c-3.54,3.54-8.93,2.95-8.93,2.95s6.37-0.42,8.73,1.94s3.43,10.48,3.43,10.48s0.14-6.56,3.76-10.18s9.43-3.27,9.43-3.27
	S819.43,67.46,817.19,65.22z"/>
<g id="light">
	<path class="st0" d="M101.04,96.53c-2.65,1.53-5.82,2.9-9.41,3.4c-3.7,0.52-7.84,0.12-12.29-1.97C70.6,93.84,66.14,81.31,67.48,75
		c1.35-6.3,2.69-12.61,11.52-19.25s24.47-4.88,30.44,4.88C115.41,70.38,114.6,88.74,101.04,96.53c0,0-3.9-5.64-7.44-8.47
		s-10.5-6.63-10.5-6.63s3.86,0.45,4.25-1.09c0.39-1.55,0.39-2.81-0.71-4.37c-1.09-1.56-1.67,0.31-0.97,1.21
		c0.71,0.9,3.28,1.61,3.99-0.19s0.45-4.38-0.71-4.89s0.68,1.44,1.08-0.18s-1.34-2.55-1.34-2.55s2.02,0.14,4.69,7.8
		S101.04,96.53,101.04,96.53c-2.65,1.53-5.82,2.9-9.41,3.4c0,0,1.12,3.7,5.04,2.43c2.68-0.87,4.58-1.69,6.4-2.83
		s6.14-4.07,7.46-5.43s0.98-5-0.95-6.22c1.93,1.21,2.27,4.86,0.95,6.22c0,0,1.47,3.31-1,5.32c-1.36,1.11-2.75,1.93-3.96,2.5
		s-2.89,1.46-4.64,1.96s-3.33-0.53-4.25-1.53c0.93,1,2.5,2.03,4.25,1.53c0,0,1.51,1.16,2.82,1.29c2.86,0.29,5.13-1.18,5.71-2.68
		c0.57-1.5,0.08-3.07,0.08-3.07"/>
	<path class="st0" d="M92.72,57.31c10.81-0.72,14.5,9.73,14.95,15.04"/>
	<path class="st0" d="M79.84,105.21c0.09,5.87-1.17,12.99-2.16,16.32"/>
	<path class="st0" d="M73.53,105.21c-0.9,2.27-2.43,4.43-2.43,4.43"/>
	<path class="st0" d="M69.72,98.71c-2.38,5.76-8.43,12.18-13.52,16.1"/>
	<path class="st0" d="M65.42,94.91c-0.21,1.21-5.26,4.92-5.26,4.92"/>
	<path class="st0" d="M62.5,88.32c-3.63,2.88-12.14,7.84-19.52,9.3"/>
	<path class="st0" d="M60.33,81.86c-2.63,1.13-4.3,1.79-7.38,2.38"/>
	<path class="st0" d="M60.33,73.18c-5.97,2.79-12.93,4.38-17.85,5.01"/>
	<path class="st0" d="M52.74,62.25c-0.29-1.38,4.34-0.11,10.93,1.75"/>
	<path class="st0" d="M65.46,55.49c-5.63-5.46-9.26-8.63-15.52-11.35"/>
	<path class="st0" d="M73.39,51.03c-1.67-2.92-6.47-8.3-6.47-8.3"/>
	<path class="st0" d="M78.35,45.36c-2.29-9.3-4.46-16.23-5.17-19.23s0.21-5.05,0.21-5.05"/>
	<path class="st0" d="M85.65,33.89c1.33,1.92,1.25,8.05,1.08,11.01"/>
	<path class="st0" d="M96.58,46.07c0.62-9.6,2.42-22.97,3.04-26.16"/>
	<path class="st0" d="M102.42,47.38c1.5-4.09,2.88-6.67,5.42-9.43"/>
	<path class="st0" d="M107.84,52.1c7.09-7.68,17.56-16.39,25.86-20.94"/>
	<path class="st0" d="M114.14,58.98c5.8-4.84,11.64-6.88,11.64-6.88"/>
	<path class="st0" d="M117.35,68.2c8.89-1.33,22.4-3.92,22.4-3.92"/>
	<path class="st0" d="M118.98,76.41c-0.5,1.04,0.04,1.29,1.75,1.33s5.17,0.92,5.17,0.92"/>
	<path class="st0" d="M118.06,86.18c4.34,0.63,17.44,4.46,17.44,4.46"/>
</g>
<path id="arrow" class="st0" d="M439.74,262.59c0,0-1.18,11.73-1.93,19.16c-0.75,7.43-2.26,22.45-2.26,22.45l11.39-7.2l6.7,14.65
	l8.21-3.6l-7.38-15.66l11.08-4.44l-24.3-24.44"/>
</svg>
