<?xml version="1.0" encoding="utf-8"?>
<svg version="1.1" id="icon-navi" xmlns="http://www.w3.org/2000/svg" xmlns:xlink="http://www.w3.org/1999/xlink" x="0px" y="0px" viewBox="0 0 32 32" style="enable-background:new 0 0 32 32;" xml:space="preserve">
<path id="bar1" d="M27,6.5H5C4.17,6.5,3.5,5.83,3.5,5v0c0-0.83,0.67-1.5,1.5-1.5h22c0.83,0,1.5,0.67,1.5,1.5v0,C28.5,5.83,27.83,6.5,27,6.5z"/>
<path id="bar2" d="M27,17.5H5c-0.83,0-1.5-0.67-1.5-1.5v0c0-0.83,0.67-1.5,1.5-1.5h22c0.83,0,1.5,0.67,1.5,1.5v0,C28.5,16.83,27.83,17.5,27,17.5z"/>
<path id="bar3" d="M27,28.5H5c-0.83,0-1.5-0.67-1.5-1.5v0c0-0.83,0.67-1.5,1.5-1.5h22c0.83,0,1.5,0.67,1.5,1.5v0,C28.5,27.83,27.83,28.5,27,28.5z"/>
<style>
#icon-navi path#bar1,
#icon-navi path#bar2,
#icon-navi path#bar3 {
    transition-property:transform, opacity;
    transition-duration:0.3s;
    transition-timing-function:ease-in-out;
    opacity:1;
}
.left #icon-navi path#bar1 {
    transform:rotate(45deg);
}
.left #icon-navi path#bar2 {
    opacity:0;
}
.left #icon-navi path#bar3 {
    transform:rotate(-45deg);
}
</style>
</svg>