<?xml version="1.0" encoding="utf-8"?>
<svg version="1.1" id="respect-likes-logo1" xmlns="http://www.w3.org/2000/svg" xmlns:xlink="http://www.w3.org/1999/xlink" x="0px" y="0px" viewBox="0 0 160 58" style="enable-background:new 0 0 160 58;" xml:space="preserve">
<path d="M21.42,12.09c-1.29,0-2.39-0.42-3.3-1.27c-0.91-0.85-1.37-1.85-1.37-3c0-1.22,0.46-2.25,1.37-3.1,c0.91-0.85,2.02-1.27,3.3-1.27c1.22,0,2.27,0.42,3.15,1.27c0.88,0.85,1.32,1.88,1.32,3.1c0,1.15-0.44,2.15-1.32,3,C23.69,11.67,22.64,12.09,21.42,12.09z"/>
<path d="M18,12.52l-1.98-2.33c-1.15-1.15-2.22-0.84-3.21,0.14c0,0-4.94,4.61-6.03,5.65C5.66,17.07,5,18.61,5,20.69,s0.18,11.63,0.18,11.63c0,1.08,0.31,1.44,1.5,1.44h3.51c1.19,0,1.5-0.36,1.5-1.44l-0.13-11.64c2.04-1.86,5.13-4.74,5.9-5.46,C18.22,14.5,18.89,13.79,18,12.52z"/>

<path d="M45.57,22.48c0.04,1.1-0.29,1.38-1.3,1.51l-14.99,1.18c1.14,5.01,9.04,4.56,12.67,2.77,c0.77-0.37,0.94-0.08,1.06,0.69l0.29,2.73c0.12,0.77-0.08,0.9-0.86,1.18c-2.32,0.94-5.09,1.3-7.09,1.3,c-7.37,0-11.49-5.01-11.49-11.85c0-5.95,3.83-11.61,10.76-11.61S45.24,15.1,45.57,22.48z M40.27,19.91,c-0.45-3.26-2.57-4.89-5.54-4.89c-3.3,0-5.62,2.2-5.83,5.74L40.27,19.91z"/>
<path d="M57.02,29.32c2.28,0,4.11-0.61,4.11-2.12c0-1.63-2.81-2.28-5.5-3.26c-3.46-1.18-7.13-2.93-7.13-6.76,c0-3.1,2.32-6.8,9.49-6.8c3.26,0,5.3,0.57,7.25,1.55c0.61,0.29,0.73,0.61,0.69,1.26l-0.16,2.69c-0.04,0.82-0.29,0.94-1.06,0.57,c-1.59-0.81-3.54-1.55-6.31-1.55c-2.61,0-4.44,0.73-4.44,2.32c0,1.96,3.59,2.53,6.84,3.83c3.34,1.3,5.74,3.05,5.74,6.36,c0,4.07-3.5,6.44-8.92,6.44c-3.71,0-5.87-0.57-8.03-1.67c-0.61-0.33-0.61-0.73-0.49-1.55l0.41-2.12c0.12-0.77,0.33-0.94,1.1-0.65,C52.62,28.67,55.06,29.32,57.02,29.32z"/>
<path d="M70.22,11.36c0-0.86,0.24-1.14,1.18-1.14h3.95c7.37,0,15.4,1.63,15.4,11.28c0,8.11-7.7,11.81-15.4,11.69v6.88,c0,0.86-0.24,1.14-1.18,1.14H71.4c-0.94,0-1.18-0.29-1.18-1.14V11.36z M75.35,14.86v13.61c6.19-0.2,10.27-2.4,10.27-7.29,C85.62,16.33,81.54,14.86,75.35,14.86z"/>
<path d="M115.72,22.48c0.04,1.1-0.29,1.38-1.3,1.51l-14.99,1.18c1.14,5.01,9.04,4.56,12.67,2.77,c0.77-0.37,0.94-0.08,1.06,0.69l0.29,2.73c0.12,0.77-0.08,0.9-0.86,1.18c-2.32,0.94-5.09,1.3-7.09,1.3,c-7.37,0-11.49-5.01-11.49-11.85c0-5.95,3.83-11.61,10.75-11.61C111.69,10.38,115.4,15.1,115.72,22.48z M110.43,19.91,c-0.45-3.26-2.57-4.89-5.54-4.89c-3.3,0-5.62,2.2-5.83,5.74L110.43,19.91z"/>
<path d="M134.96,14.04c0.04,0.77-0.08,0.94-0.86,0.94c-6.8,0-10.31,2.57-10.31,7.5c0,5.09,4.36,6.6,10.92,6.27,c0.49-0.04,0.65,0.12,0.69,0.57l0.2,3.34c0.04,0.41-0.16,0.61-0.61,0.65c-8.68,0.86-16.34-1.91-16.34-11.2,c0-8.35,6.84-12.3,15.32-11.65c0.69,0.04,0.86,0.2,0.9,0.98L134.96,14.04z"/>
<path d="M139.15,15.96c-0.86,0-1.14-0.2-1.14-1.06v-2.57c0-0.86,0.29-1.1,1.14-1.1h3.91v-7.5,c0-0.86,0.25-1.14,1.18-1.14h2.77c0.94,0,1.18,0.29,1.18,1.14v7.5h5.66c0.86,0,1.14,0.24,1.14,1.1v2.57,c0,0.86-0.29,1.06-1.14,1.06h-5.66V26.8c0,1.75,0.65,2.24,2.16,2.24c1.02,0,2.69-0.12,3.54-0.24c0.53-0.12,0.81,0.04,0.81,0.69,l0.08,3.3c0,0.61-0.08,0.69-0.73,0.81c-1.59,0.29-3.18,0.41-4.77,0.41c-4.4,0-6.23-1.91-6.23-7.7V15.96H139.15z"/>

<path d="M23.2,48.21c-0.24,0-0.33-0.07-0.33-0.31v-0.71c0-0.24,0.09-0.29,0.33-0.29h0.98v-0.72,c0-1.32,0.57-1.98,1.82-1.98c0.73,0,1.35,0.1,1.82,0.32c0.19,0.08,0.21,0.14,0.18,0.33l-0.12,0.75c-0.03,0.22-0.08,0.26-0.31,0.18,c-0.41-0.14-0.72-0.24-1.12-0.24c-0.64,0-0.85,0.17-0.85,0.85v0.52h1.66c0.24,0,0.32,0.06,0.32,0.29v0.71,c0,0.24-0.08,0.31-0.32,0.31h-1.66v4.39c0,0.24-0.08,0.32-0.34,0.32h-0.76c-0.26,0-0.33-0.08-0.33-0.32v-4.39H23.2z"/>
<path d="M34.13,46.47c1.81,0,2.95,1.38,2.95,3.25c0,1.88-1.14,3.25-2.95,3.25c-1.8,0-2.95-1.37-2.95-3.25,C31.18,47.85,32.33,46.47,34.13,46.47z M34.13,51.63c0.98,0,1.63-0.78,1.63-1.91s-0.65-1.91-1.63-1.91,c-0.98,0-1.62,0.78-1.62,1.91S33.14,51.63,34.13,51.63z"/>
<path d="M41.03,47.3c0-0.45,0.05-0.53,0.45-0.59c1.11-0.15,2.96-0.24,3.7-0.15c0.26,0.03,0.28,0.06,0.27,0.32,l-0.03,0.63c-0.01,0.32-0.05,0.34-0.37,0.33c-0.46,0-1.88,0.06-2.52,0.15l0.02,4.62c0,0.24-0.07,0.32-0.33,0.32h-0.77,c-0.26,0-0.33-0.08-0.33-0.32L41.03,47.3z"/>
<path d="M57.89,52.16l-2.59-4.85c-0.17-0.28-0.12-0.35,0.18-0.5l0.66-0.32c0.24-0.1,0.31-0.09,0.44,0.17l2.02,3.8,l1.62-3.87c0.12-0.27,0.17-0.29,0.43-0.2l0.68,0.27c0.31,0.12,0.34,0.17,0.22,0.48l-3.34,8.01c-0.12,0.31-0.19,0.31-0.52,0.17,l-0.54-0.25c-0.35-0.15-0.37-0.19-0.25-0.5L57.89,52.16z"/>
<path d="M67.86,46.47c1.81,0,2.95,1.38,2.95,3.25c0,1.88-1.14,3.25-2.95,3.25c-1.8,0-2.95-1.37-2.95-3.25,C64.9,47.85,66.06,46.47,67.86,46.47z M67.86,51.63c0.98,0,1.63-0.78,1.63-1.91s-0.65-1.91-1.63-1.91c-0.98,0-1.62,0.78-1.62,1.91,S66.87,51.63,67.86,51.63z"/>
<path d="M76.28,49.76c-0.03,1.49,0.07,1.85,1.39,1.82l1.46-0.03l0.06-4.69c0-0.24,0.08-0.32,0.34-0.32h0.83,c0.26,0,0.33,0.08,0.33,0.32l-0.08,5.5c-0.01,0.41-0.09,0.47-0.37,0.49c-0.77,0.06-1.91,0.08-3.26,0.08,c-1.67,0-2.26-1.35-2.21-2.66l0.15-3.4c0-0.24,0.08-0.32,0.34-0.32h0.83c0.26,0,0.33,0.08,0.33,0.32L76.28,49.76z"/>
<path d="M84.83,47.3c0-0.45,0.05-0.53,0.45-0.59c1.11-0.15,2.96-0.24,3.7-0.15c0.26,0.03,0.28,0.06,0.27,0.32,l-0.03,0.63c-0.01,0.32-0.05,0.34-0.37,0.33c-0.46,0-1.88,0.06-2.52,0.15l0.02,4.62c0,0.24-0.07,0.32-0.33,0.32h-0.77,c-0.26,0-0.33-0.08-0.33-0.32L84.83,47.3z"/>
<path d="M99.46,44.63c0-0.24,0.07-0.32,0.33-0.32h0.77c0.26,0,0.33,0.08,0.33,0.32v7.97c0,0.24-0.07,0.32-0.33,0.32,h-0.77c-0.26,0-0.33-0.08-0.33-0.32V44.63z"/>
<path d="M106.11,44.2c0.53,0,0.96,0.4,0.96,0.9c0,0.53-0.43,0.91-0.96,0.91s-0.93-0.37-0.93-0.91,C105.18,44.59,105.58,44.2,106.11,44.2z M105.44,47.27c0-0.24,0.07-0.33,0.33-0.33h0.77c0.26,0,0.33,0.09,0.33,0.33v5.33,c0,0.24-0.07,0.32-0.33,0.32h-0.77c-0.26,0-0.33-0.08-0.33-0.32V47.27z"/>
<path d="M111.37,44.63c0-0.24,0.08-0.32,0.34-0.32h0.76c0.26,0,0.33,0.08,0.33,0.32v4.09l2.51-2.09,c0.17-0.15,0.27-0.17,0.42-0.03l0.55,0.53c0.15,0.15,0.15,0.28-0.01,0.42l-2.6,2.16l2.53,2.25c0.19,0.18,0.19,0.28-0.03,0.48,l-0.52,0.42c-0.17,0.14-0.26,0.16-0.48-0.03l-2.38-2.17v1.96c0,0.24-0.07,0.32-0.33,0.32h-0.76c-0.26,0-0.34-0.08-0.34-0.32V44.63,z"/>
<path d="M125.88,49.83c0.01,0.31-0.08,0.38-0.36,0.42l-4.16,0.33c0.32,1.39,2.51,1.27,3.52,0.77,c0.21-0.1,0.26-0.02,0.29,0.19l0.08,0.76c0.03,0.22-0.02,0.25-0.24,0.33c-0.65,0.26-1.41,0.36-1.97,0.36,c-2.05,0-3.19-1.39-3.19-3.29c0-1.65,1.06-3.22,2.99-3.22C124.76,46.47,125.79,47.78,125.88,49.83z M124.41,49.12,c-0.12-0.91-0.71-1.36-1.54-1.36c-0.92,0-1.56,0.61-1.62,1.6L124.41,49.12z"/>
<path d="M132.08,51.73c0.63,0,1.14-0.17,1.14-0.59c0-0.45-0.78-0.63-1.53-0.91c-0.96-0.33-1.98-0.81-1.98-1.88,c0-0.86,0.65-1.89,2.64-1.89c0.91,0,1.47,0.16,2.01,0.43c0.17,0.08,0.2,0.17,0.19,0.35L134.51,48c-0.01,0.23-0.08,0.26-0.29,0.16,c-0.44-0.23-0.98-0.43-1.75-0.43c-0.72,0-1.23,0.2-1.23,0.64c0,0.54,0.99,0.7,1.9,1.06c0.93,0.36,1.59,0.85,1.59,1.77,c0,1.13-0.97,1.79-2.48,1.79c-1.03,0-1.63-0.16-2.23-0.46c-0.17-0.09-0.17-0.2-0.14-0.43L130,51.5c0.03-0.21,0.09-0.26,0.31-0.18,C130.86,51.55,131.54,51.73,132.08,51.73z"/>

</svg>
