<?xml version="1.0" encoding="utf-8"?>
<!-- Generator: Adobe Illustrator 26.2.1, SVG Export Plug-In . SVG Version: 6.00 Build 0)  -->
<svg version="1.1" id="master-woos" xmlns="http://www.w3.org/2000/svg" xmlns:xlink="http://www.w3.org/1999/xlink" x="0px"
	 y="0px" viewBox="0 0 470 470" style="enable-background:new 0 0 470 470;" xml:space="preserve">
<style type="text/css">
	.st0{fill:none;stroke:#FFFFFF;stroke-width:0.75;stroke-linecap:round;stroke-linejoin:round;stroke-miterlimit:10;}
	.st1{opacity:0.5;fill:none;stroke:#FFFFFF;stroke-width:0.75;stroke-linecap:round;stroke-linejoin:round;stroke-miterlimit:10;}
</style>
<g id="obj1">
	<polyline class="st0" points="75.91,4.2 70.06,12.22 73.43,14.61 79.88,17.81 81.85,14.7 84.89,10.33 75.91,4.2 84.89,10.33 
		81.85,14.7 95.3,25.58 98.29,21.43 106.97,27.55 101.59,35.07 92.55,30.56 95.3,25.58 92.55,30.56 101.59,35.07 104.06,31.61 
		119.07,41.73 121.02,40.12 129.26,45.42 124.97,52.94 115.66,48.12 119.07,41.73 115.66,48.12 120.27,50.51 105.39,68.95 
		109.34,71.47 104.62,78.78 95.35,74.2 100.53,65.92 105.39,68.95 100.53,65.92 95.35,74.2 99.63,76.32 84.76,93.86 88.74,96.76 
		84.08,104.33 75.11,99.77 80.24,90.93 84.76,93.86 80.24,90.93 78.08,94.65 63.45,83.64 61.07,87.5 52.19,82 57.48,73.25 
		66.59,78.8 63.45,83.64 66.59,78.8 57.48,73.25 55.63,76.3 41.5,65.85 38.93,70.03 29.87,64.24 35.41,55.8 43.71,61.1 41.5,65.85 
		43.71,61.1 40.23,58.88 54.89,40.97 50.5,38.53 55.51,29.66 64.14,35.23 59.45,43.7 54.89,40.97 59.45,43.7 64.14,35.23 
		60.58,33.13 73.43,14.61 	"/>
	<polyline class="st0" points="69.13,38.19 93.14,35.62 101.53,58.1 78.69,61.48 101.53,58.1 92.13,72.39 70.66,76.79 78.69,61.48 
		70.66,76.79 62.24,51.36 69.13,38.19 78.69,61.48 	"/>
</g>
<g id="obj2">
	<g>
		<polyline class="st0" points="367.78,3.29 363.98,5.11 364.68,6.49 365.82,8.96 367.74,7.88 369.59,6.93 367.78,3.29 369.59,6.93 
			367.74,7.88 371.8,16.76 373.36,16.16 375.15,19.71 371.3,21.58 369.54,17.85 371.8,16.76 369.54,17.85 371.3,21.58 373.43,20.55 
			377.18,29.61 378.9,28.81 380.81,32.23 376.93,34.46 375.03,30.72 377.18,29.61 375.03,30.72 375.84,32.35 368.37,35.48 
			369.18,37.53 365.58,39.44 363.38,35.82 367.55,34.02 368.37,35.48 367.55,34.02 363.38,35.82 364.37,37.25 357.41,40.47 
			358.22,42.13 354.51,44.35 352.57,40.54 356.44,38.71 357.41,40.47 356.44,38.71 354.43,39.66 350.69,30.36 348.8,31.46 
			347.13,27.73 350.99,25.81 352.77,29.3 350.69,30.36 352.77,29.3 350.99,25.81 349.07,26.76 345.06,17.61 343.3,18.64 
			341.72,14.73 345.39,13.09 347.07,16.51 345.06,17.61 347.07,16.51 346.25,14.85 353.36,11.97 352.52,10.14 356.25,8.25 
			358.22,11.83 354.35,13.85 353.36,11.97 354.35,13.85 358.22,11.83 357.22,9.99 364.68,6.49 		"/>
	</g>
	<path class="st0" d="M361.04,32.42c0,0,2.51-1.72,3.42-2.51c0.92-0.79,2.79-2.7,2.79-2.7s-1.87,1.91-2.79,2.7
		c0,0-1.5-3.6-2.75-5.99s-3.33-5.21-3.33-5.21s3.03-1.78,4.83-2.54c1.8-0.75,2.88,0.41,3.22,1.38c-0.34-0.98-1.42-2.14-3.22-1.38
		c-1.8,0.75-4.83,2.54-4.83,2.54s-1.96,1.11-2.94,1.62c-0.99,0.51-3.21,1.91-2.21,4.29"/>
</g>
<polyline id="ruler" class="st0" points="395.69,135.1 393.6,135.55 390.33,145.29 431.71,192.52 433.8,192.12 392.27,144.97 
	390.33,145.29 392.27,144.97 395.69,135.1 399.23,139.12 397.3,144.34 399.23,139.12 402.69,143.05 400.87,148.18 402.69,143.05 
	406.25,147.09 404.36,152.1 406.25,147.09 409.71,151.02 407.81,156.14 409.71,151.02 413.03,154.79 411.26,159.69 413.03,154.79 
	416.49,158.72 414.67,163.63 416.49,158.72 420,162.71 418.19,167.64 420,162.71 423.5,166.68 421.71,171.62 423.5,166.68 
	426.92,170.57 425.18,175.57 426.92,170.57 430.48,174.62 428.63,179.65 430.48,174.62 433.97,178.57 432.18,183.58 433.97,178.57 
	437.35,182.41 433.8,192.12 "/>
<g id="woos">
	<g>
		<path class="st0" d="M250.25,74.8c0,0.94,1.73,1.01,3.08,1.2c1.35,0.19,2.48,0.23,2.93,0.34c0.45,0.11,0.45-0.64-1.05-1.35
			C253.71,74.27,250.25,73.48,250.25,74.8z"/>
		<path class="st0" d="M242.5,78.41c-0.6,0-0.77,0.7-0.77,1.67c0,0.97,0.17,1.73,0.77,1.73s1.03-0.93,1.03-2
			S243.14,78.41,242.5,78.41z"/>
		<path class="st0" d="M252.67,78.41c-0.71,0-1.07,0.77-1.03,1.7c0.03,0.93,0.33,1.9,0.83,1.9s0.92-0.87,0.92-2.03
			C253.39,78.81,253.3,78.41,252.67,78.41z"/>
		<path class="st0" d="M247.8,80.21c-1.07,1.77-2.7,2.77-2.7,3.3c0,0.53,0.83,1.8,1.97,2.17"/>
		<path class="st0" d="M245.1,90.41c1.43,0.7,3.57,0.77,6.03-1.67"/>
		<path class="st0" d="M202.71,160.49"/>
	</g>
	<path class="st0" d="M206.18,307.52c-2.34-42.19,0.27-77.09,0.27-77.09s-4.8-1.93-8.82-4.28c-4.02-2.35-6.21-4.33-6.21-4.33
		s7.82-15.64,9.81-36s1.49-25.33,1.49-25.33s-0.14-7.2-0.57-11.41c0.43,4.21,0.57,11.41,0.57,11.41s0.5,4.97-1.49,25.33
		s-9.81,36-9.81,36s2.19,1.98,6.21,4.33c4.02,2.35,8.82,4.28,8.82,4.28s3.53,1.34,9.31,1.76c5.79,0.42,16.87-0.85,16.87-0.85
		s0.42-6-0.14-14.18c-0.56-8.19-1.48-18.42-1.48-18.42s8.84,0.5,12.35,0.58c3.51,0.08,12.64,0.2,12.64,0.2s-9.13-0.12-12.64-0.2
		c-3.51-0.08-12.35-0.58-12.35-0.58l-0.8-6.16c0,0-3.57-15.96-4.1-40.66s4.21-36.26,6.07-44.89c0,0-8.79,0.94-19.68,3.75
		c-10.89,2.81-39.46,17.29-39.46,17.29c1.72,2.69,5.39,7.92,5.39,7.92s-3.66-5.23-5.39-7.92c-1.72-2.69-7.15-17.07-7.15-17.07
		l74.1-17.03l-74.1,17.03l-1.17-5.84c0,0-2.13,1.13-3.79,2s-4.32,1.9-4.32,1.9s-0.29-3.21-0.39-6.18c-0.1-2.97-0.03-6.46-0.03-6.46
		s-0.06,3.49,0.03,6.46c0.1,2.97,0.39,6.18,0.39,6.18c-3.51,2.14-15.46,6.78-15.46,6.78s-1.81-5.02-2.96-7.67
		c-1.14-2.65-2.78-6.42-2.78-6.42s1.63,3.78,2.78,6.42c1.14,2.65,2.96,7.67,2.96,7.67c-3.71,1.48-12.51,2.86-12.51,2.86l10.21,24.22
		c0,0,3.17,8.31,6.63,17.36c3.47,9.05,7.22,14.86,14.06,17.16c6.84,2.3,14.08,0.66,21.64-3.42c7.57-4.08,21.52-13.54,21.52-13.54
		s-13.96,9.46-21.52,13.54c-7.57,4.08-14.8,5.72-21.64,3.42c-6.84-2.3-10.6-8.11-14.06-17.16c-3.47-9.05-6.63-17.36-6.63-17.36
		l-2.48,0.56c0,0-6.75-2.22-10.78-17.94c-4.03-15.72-0.96-21.33-0.96-21.33s-3.08,5.62,0.96,21.33
		c4.03,15.72,10.78,17.94,10.78,17.94L106,150.53c0,0-6.75-2.22-10.78-17.94s-0.96-21.33-0.96-21.33s-3.08,5.62,0.96,21.33
		S106,150.53,106,150.53l-4.74,1.17c0,0-6.75-2.22-10.78-17.94s-0.96-21.33-0.96-21.33s-3.08,5.62,0.96,21.33
		s10.78,17.94,10.78,17.94s-19.5,5.1-28.31,6.83s-14.89-1.48-16.62-6.99c-1.73-5.51-2.88-9.13-4.36-16.62
		c-1.48-7.49,3.21-14.15,10.45-16.05s72.99-17.12,72.99-17.12s-0.7-2.46-1.44-5.34c-0.74-2.88-0.9-10.58-0.9-10.58
		s-2.09-4.68-3.2-6.15c-1.11-1.48-4.06-3.57-3.55-4.31c0.52-0.74,2.44-0.37,3.75,0.49c1.31,0.86,3.08,2.83,3.08,2.83
		c1.48,2.79,2.83,7.1,2.83,7.1s-1.35-4.31-2.83-7.1c-1.48-2.79-3.98-4.92-4.88-5.66c-0.9-0.74-2.34-2.13-1.85-3.65
		c0.49-1.52,4.14,0.53,4.14,0.53s5.66,3.69,9.19,13.87c-3.53-10.17-9.19-13.87-9.19-13.87s-2.22-1.8-1.23-3.4
		c0.98-1.6,6.11,1.11,6.11,1.11s7.14,4.47,9.02,14.32c-1.89-9.85-9.02-14.32-9.02-14.32s-1.27-1.97-0.53-2.79
		c0.74-0.82,5.78,0.21,9.68,5.21c3.9,5,6.65,16.82,6.65,16.82s-4.55,2.17-4.59,8.74c0.04-6.56,4.59-8.74,4.59-8.74
		s1.34-4.62,1.95-6.82c0.62-2.19,3.9-5.1,4.93-4.89c1.03,0.21,0.41,3.39,0,6.78s-1.95,14.49-1.95,14.49l74.18-18.32l0.36-1.26
		c0,0,0.17-0.69,1.8-0.56c1.64,0.13,2.3,1.26,2.39,1.76c0.09,0.5-0.06,1.42-0.63,1.48s-0.98,0.28-1.29,0.72
		c-0.31,0.44,0.06,2.33,0.13,2.99s1.67,1.29,2.05,1.13c0.38-0.16,0.38-1.23,0.16-1.51c-0.22-0.28-0.5-1.2-0.31-1.7
		c0.19-0.5,0.25-2.14,0.25-2.14s0.69,1.61,1.07,2.43c0.38,0.82,1.57,0.72,1.57,0.72s-0.09-2.24-0.09-3.12s0.35-2.77,0.35-2.77
		s2.68-0.22,3.31-0.31c0.63-0.09,2.93-0.38,3.34-0.6c0.41-0.22-0.06-1.04-0.5-1.1c-0.44-0.06-2.34-0.34-4.47,0.69
		c-1.63,0.79-1.67,1.32-1.67,1.32l0.13-1.89c0,0,2.11-2.74,3.46-4.28s0.66-3.09,0.66-3.09s0.28,0.35,1.39,2.05s5.42,1.67,8.13,0.63
		c2.71-1.04,3.54-2.37,3.54-2.37s0.57,0.41,0.38,2.05c-0.19,1.64,0.21,2.64,0.93,3.58c0.57,0.74,1.13,1.45,1.44,2.93
		c0.18,0.85,0.31,4.24,0.38,5.16c0.06,0.74,0.17,1.3,0.61,0.84c0.34-0.35,1.16-3.11,1.16-3.11s-0.41,1.32,0.3,2
		c0.52,0.5-0.16,2.3-0.37,2.81s-1.71,1.04-1.71,1.04c0,0.63-0.27,1.93-0.27,1.93s-0.26,1.8-0.64,2.89
		c-0.37,1.09-1.87,3.96-1.87,3.96c-0.81,1.45-2.78,3.73-5.03,4.51c-1.94,0.67-4.83,0.57-6.51,0c-1.81-0.62-2.97-1.98-2.97-1.98
		c0.21,0.66,0.87,8.49,0.24,9.78c-1.5,0.42-7.65,1.03-9.36,1.33c1.7-0.3,7.86-0.91,9.36-1.33c0.63-1.29-0.03-9.12-0.24-9.78
		c0,0,0,0-1.31-1.95c-1.03-1.54-2.36-5.56-2.69-6.53c-0.32-0.97-1.34-0.83-1.34-0.83c-3.15,0.65-5.28-2.87-5.84-4.63
		c-0.34-1.07-0.04-2.74,0.24-3.89c0.18-0.74,0.36-1.26,0.36-1.26s-2.08-1.45-1.9-6.33s4.64-5.67,5.05-6.16
		c0.42-0.48,0.03-1.14-0.42-3.15c-0.45-2.01,1.31-5.92,3.6-7.82c2.28-1.9,6.02-0.59,7.16,0.21c1.14,0.8,2.15,2.11,3.36,2.01
		c1.21-0.1,1.9-1.42,2.77-2.56c0.86-1.14,4.77-2.39,7.37-1.56c2.59,0.83,3.81,3.39,4.05,5.81c0.24,2.42,0.55,3.53,1.97,4.95
		c1.42,1.42,4.1,4.03,4.33,7.61l41.74-9.69c0,0,0.95-6.06,2.79-8.46c1.84-2.4,9.28-9.28,19.73-8.91s16.06,4.75,17.97,7.52
		c0,0-4.07,1.82-7.76,3.05c-3.69,1.23-8.18,0.98-8.18,0.98s-5.84,5.41-7.56,6.88c-1.72,1.48-3.57,1.91-4.43,1.6
		c-0.86-0.31-0.17-2.81,1.15-4.29c1.32-1.48,4.22-5.55,7.9-7.68c-3.68,2.12-6.58,6.19-7.9,7.68c-1.32,1.48-2.01,3.99-1.15,4.29
		c0,0-2.91,3.32-4.47,3.49c-1.56,0.17-2.51-0.65-2.42-1.65s0.43-3.2,2.55-6.02c2.12-2.81,6.06-7.01,9.01-9.31
		c-2.94,2.29-6.88,6.49-9.01,9.31c-2.12,2.81-2.47,5.02-2.55,6.02c0,0-1.91,2.08-3.38,1.39c-0.94-0.44-0.98-2.12-0.71-3.68
		c0.15-0.88,0.39-1.72,0.63-2.29c0.65-1.6,1.39-5.72,9.44-12.17c-8.05,6.45-8.79,10.57-9.44,12.17c-0.23,0.57-0.48,1.42-0.63,2.29
		c0,0-1.5-0.66-1.58-2.22l-41.74,9.69c0.69,3.09-3.22,8.45-3.22,8.45s-0.32-0.67-0.85-1.13c-0.53-0.45-2.81-0.58-3.62,1.62
		c0.8-2.21,3.08-2.08,3.62-1.62c0.53,0.45,0.85,1.13,0.85,1.13s-0.16,3.79-1.47,6.22s-5.06,2.05-5.06,2.05s-0.26,1.8-0.64,2.89
		c-0.37,1.09-1.87,3.96-1.87,3.96l0.16,11.37l5.87,0.88l2.22,5c0,0-1.27,2.62-5.76,5.84c-4.49,3.22-15.33,3.53-19.97,0.83
		s-6.15-10.29-6.15-10.29c-1.86,8.63-6.6,20.19-6.07,44.89s4.1,40.66,4.1,40.66c11.11,0.76,30.95,0.6,35.9,0.46
		c4.95-0.14,15.52-0.46,15.52-0.46c-0.58-9.45-5.04-49.51-17.57-81.93l-2.22-5c18.21-0.88,26.61,1.81,26.61,1.81l37.71-9.9
		l26.53-6.41l46.84-10.94l47.67-24.27c0,0,12.64-5.8,17.1-8.47c4.46-2.68,4.01-6.31-1.49-6.57c-5.5-0.26-13.83,0-13.83,0
		s8.33-0.26,13.83,0c5.5,0.26,5.95,3.9,1.49,6.57c-4.46,2.68-17.1,8.47-17.1,8.47l-47.67,24.27c0,0,2.47-3.61,1.58-7.62
		c-0.89-4.01-4.24-11.8-13.46-11.8L257.67,89.44L387.65,60.8c7.73-7.58,2.46-19.91,2.46-19.91l-39.82,9.41l39.82-9.41h58.87
		c0,0-5.82,5.11-5.82,7.71s4.04,7.34,4.04,7.34l-47.67,24.27l-46.84,10.94l-26.53,6.41l-37.71,9.9c0,0-8.39-2.69-26.61-1.81
		c18.21-0.88,26.61,1.81,26.61,1.81s4.1,1.15,7.43,3.87c-3.32-2.71-7.43-3.87-7.43-3.87l37.71-9.9c0,0,8.31,1.9,11.16,4.68
		c-2.85-2.78-11.16-4.68-11.16-4.68l26.53-6.41c0,0,2.06,18.14-1.2,24.18c-3.26,6.04-9.84,10.04-21.5,15.8
		c-11.67,5.77-18.79,8.48-23.27,10.17c-4.48,1.7-12.48,5.7-10.17,16.41c2.31,10.72,12.35,64.98,12.35,64.98s-7.31,4.25-14.62,4.92
		s-11.86,0-11.86,0s-0.2-25.59-0.79-35.04s-5.04-49.51-17.57-81.93c12.53,32.41,16.99,72.48,17.57,81.93c0,0-10.57,0.31-15.52,0.46
		c0,0,0.95,1.79,0.8,3.15l-2.82,0.05c0,0,0.01-0.8-0.37-1.19c-0.38-0.38-1.32-0.41-1.73,0c-0.41,0.41-0.56,1.45-0.12,1.88
		c0.43,0.43,1.37,0.61,1.76,0.22c0.38-0.38,0.47-0.91,0.47-0.91l2.82-0.05c0,2-0.89,3.24-0.89,3.24s4.7-0.05,8.88-0.37
		s6.89-0.51,6.89-0.51s-2.71,0.19-6.89,0.51s-8.88,0.37-8.88,0.37s-8.58,0.09-10.02,0.09c0,0,1,19.5,1,24.05s-1.59,15.68-4.24,16.92
		c0,0-9.19,0.71-15.55,0c6.36,0.71,15.55,0,15.55,0s5.85,0.35,15.62-2.87c-9.78,3.22-15.62,2.87-15.62,2.87s0.27,21.61,0.6,33.85
		c0,0,7.46,52.36,10.6,71.69c3.14,19.34,15.51,89.15,15.51,89.15l33.4-0.11c0,0-4.81-78.22-9.48-121s-9.1-86.46-9.1-86.46
		s4.42,43.67,9.1,86.46s9.48,121,9.48,121l0.23,5.1l-5.22,0.02l-20.33,0.01l20.33-0.01c0,0,0.11,0.54,0.23,1.46
		c0.27,2.23,1.26,3.39,1.26,3.39s-2.27,6.55-7.64,7.79s-11.31-2.94-13.42-5.34c2.1,2.39,8.05,6.57,13.42,5.34s7.64-7.79,7.64-7.79
		l0.67,1.55c0,0-1.49,4.13-0.55,5.8c0.94,1.67,3.92,3.27,4.57,2.32c0.46-0.66-2.51-5.07-4.03-8.12c-0.29-0.58-0.52-1.1-0.67-1.55
		c-0.19-0.56-0.24-0.98-0.1-1.21c0.87-1.38,3.7-1.31,3.7-1.31l1.66,7.73c0,0,13.44,6.99,18.78,9.76c5.34,2.76,6.81,6.68,6.81,6.68
		h-57.25c0,0,0.37-5.58,1.47-9.63s3.87-9.57,3.87-9.57l-1.29-7.36l-6.63-0.37l-0.92-4.58c0,0-12.37-69.82-15.51-89.15
		c-3.14-19.34-10.6-71.69-10.6-71.69c0.09,3.4,0.63,18.02,1.36,37.34c1.61,42.62,4.16,108.14,4.88,126.86
		c0.13,3.31,0.2,5.16,0.2,5.16l-11.11,0.16l0.72,6.29l-2.43,6.66l2.43-6.66c0,0,4.5,11.61,4.5,16.56h-28.44c0,0,0.36-3.15,2.34-7.02
		s4.23-6.21,4.23-6.21s0.9-0.9,1.8-1.17c0,0,1.38-7.17,6.42-7.26c5.04-0.09,7.53,2.04,9.15,5.1c-1.62-3.06-4.11-5.19-9.15-5.1
		c-5.04,0.09-6.42,7.26-6.42,7.26c-0.9,0.27-1.8,1.17-1.8,1.17l-0.81-9.54l17.46-0.08l-17.46,0.08h-3.78l-0.45-5.58l32.6,0.19
		l-32.6-0.19c0,0-8.6-37.6-14.96-77.06"/>
</g>
<g id="light">
	<path class="st0" d="M357.66,256.92c2.13,1.23,4.69,2.33,7.58,2.74c2.98,0.42,6.32,0.1,9.9-1.59c7.04-3.32,10.63-13.41,9.55-18.49
		s-2.17-10.16-9.28-15.51c-7.11-5.35-19.71-3.93-24.52,3.93C346.08,235.86,346.74,250.65,357.66,256.92c0,0,3.14-4.54,5.99-6.83
		c2.85-2.28,8.45-5.34,8.45-5.34s-3.11,0.36-3.42-0.88c-0.31-1.24-0.31-2.26,0.57-3.52c0.88-1.26,1.35,0.25,0.78,0.97
		c-0.57,0.73-2.65,1.3-3.22-0.16c-0.57-1.45-0.36-3.53,0.57-3.94c0.93-0.41-0.55,1.16-0.87-0.14s1.08-2.06,1.08-2.06
		s-1.63,0.12-3.78,6.28C361.67,247.47,357.66,256.92,357.66,256.92c2.13,1.23,4.69,2.33,7.58,2.74c0,0-0.9,2.98-4.06,1.96
		c-2.16-0.7-3.68-1.36-5.15-2.28c-1.47-0.92-4.95-3.28-6.01-4.37s-0.79-4.03,0.77-5.01c-1.55,0.98-1.83,3.91-0.77,5.01
		c0,0-1.18,2.66,0.81,4.29c1.09,0.89,2.21,1.55,3.19,2.01c0.98,0.46,2.33,1.18,3.74,1.58c1.41,0.4,2.68-0.42,3.43-1.23
		c-0.75,0.81-2.02,1.63-3.43,1.23c0,0-1.21,0.93-2.27,1.04c-2.3,0.23-4.13-0.95-4.59-2.16s-0.06-2.47-0.06-2.47"/>
	<path class="st0" d="M364.36,225.33c-8.71-0.58-11.68,7.84-12.04,12.12"/>
</g>
<path id="star1" class="st1" d="M209.56,41.42c2.55,2.55,7.96,2.64,7.96,2.64s-5.24,0.46-7.96,3.17s-2.26,6.84-2.26,6.84
	s0.32-4.88-1.49-6.69c-1.81-1.81-8.03-2.63-8.03-2.63s5.03-0.11,7.81-2.88s2.51-7.23,2.51-7.23S207.84,39.7,209.56,41.42z"/>
<path id="star2" class="st1" d="M335.39,165.72c-2.55,2.55-2.64,7.96-2.64,7.96s-0.46-5.24-3.17-7.96
	c-2.72-2.72-6.84-2.26-6.84-2.26s4.88,0.32,6.69-1.49c1.81-1.81,2.63-8.03,2.63-8.03s0.11,5.03,2.88,7.81
	c2.78,2.78,7.23,2.51,7.23,2.51S337.11,164,335.39,165.72z"/>
<g id="macbook">
	<path class="st0" d="M35.4,261.24c0,0,0.03,6.13,0.61,13.69c0.45,5.78,1.21,12.4,2.54,17.74c3.06,12.32,8.13,25.1,8.13,25.1
		s21.48-7.97,34.19-13.43s28.71-14.56,28.71-14.56s-1.58-19.52-3.32-29.2c-1.75-9.68-8.94-26.81-8.94-26.81s-16,4.75-34.46,12.86
		C44.41,254.74,35.4,261.24,35.4,261.24s0.03,6.13,0.61,13.69c0,0,25.64-12.78,37.9-18.67c12.27-5.9,23.93-10.39,29.67-12.28"/>
	<path class="st0" d="M61.48,272.56c0.4,2.47-0.05,6.7-0.21,8.45c-0.16,1.76-0.74,9.19-0.6,13.42c0.14,4.23-0.2,9.15-0.2,9.15
		s0.42-9.51,0.43-11.11s-0.43-11.73,1.11-16.63c1.54-4.9,2.39-5.31,2.39-5.31s6.44,13.01,7.79,15.51c1.35,2.5,5.24,9.44,6.05,12.29
		c-0.55-2.46-5.33-11.31-5.93-12.26c0,0-9.1,5.49-12.15,7.02"/>
	<path class="st0" d="M80.08,272.96c-0.76-0.38-1.79-0.92-2.05-2.19c-0.26-1.27-0.32-2.3,0.35-3.06c0.67-0.76,2.57-0.43,2.86,1.02
		S80.08,272.96,80.08,272.96s-0.77-0.86-1.21-1.93c-0.45-1.07-0.61-1.46-0.4-2.22s0.6-1.06,1.34-0.9c0.74,0.16,1.1,0.2,1.05,1.09
		c-0.04,0.89-0.75,2.76-0.88,2.9s0.01-0.26-0.54-0.96c-0.55-0.7-0.78-1.35-0.72-1.76s0.49-0.82,0.99-0.74s0.84,0.13,0.7,0.97
		c-0.14,0.84-0.07,1.23-0.45,1.07c-0.38-0.16-0.85-0.72-0.58-1.16c0.26-0.44,0.57-0.07,0.53,0.56"/>
	<path class="st0" d="M86.1,292.23c0.06,0.68-0.63,1.12-1,0.31c-0.37-0.81-1.69-6.86-2.39-9.66c-0.69-2.8-1.27-5.73-1.27-5.73
		s1.99,7.82,2.14,8.86c0.15,1.04,1.5,6.66,1.59,5.96C85.27,291.27,86,290.96,86.1,292.23z"/>
	<path class="st0" d="M40.39,263.35c0.89-0.61,2.16-0.12,2.38,1.24c0.22,1.35-0.43,2.9-1.16,3.13c-0.73,0.23-1.77-0.64-1.95-1.77
		C39.47,264.82,39.12,264.22,40.39,263.35z"/>
	<path class="st0" d="M45.57,260.48c-0.26,1.44-0.27,3.1,0.19,3.54c0.46,0.45,2.36-0.07,2.5-1.61c0.13-1.54,0.34-3.03-0.54-3.31
		S45.8,259.22,45.57,260.48z"/>
	<path class="st0" d="M50.92,258.27c0.83-1.46,1.6-2,2.35-1.76c0.75,0.24,1.14,1.49,0.72,2.83c-0.42,1.34-1.69,2.21-2.59,1.86
		C50.51,260.85,50.16,259.61,50.92,258.27z"/>
	<path class="st0" d="M34.34,354.89c0,0,50.52-24.19,78.01-36.13s59.89-27.49,62.43-28.58c2.13-0.92,2.24,3.21,2.24,3.21
		s-0.11-4.13-2.24-3.21c0,0-2.06-37.43-3.76-57.42c-1.7-20-2.68-44.78-2.68-44.78"/>
	<path class="st0" d="M30.39,355.46c1.34,6.53,2.57,6.11,4.38,8.2s65.67,53.25,69.41,56.39s7.7,1.86,9.85,0.56
		c2.15-1.3,132.28-80.01,134.66-81.59c2.37-1.59,1.36-2.86,1.22-4.01c-0.14-1.15-0.92-4.86-1.11-5.69c-0.18-0.83-1.7-2.43-3.9-3.24
		c-2.2-0.81-67.89-32.7-67.89-32.7S38.82,356.61,35.45,357.3l-5.15-1.85L2.68,244.66l159.3-59.93l6.35,3.24
		c0,0-72.07,23.82-91.92,32.26s-67.3,27.73-67.3,27.73l-4.43-2.06l4.49,3.6c0,0,5.29,23.96,9.04,39.65s16.13,65.75,16.13,65.75
		s0.83,2.32,1.45,3.26c0.63,0.94,66.93,49.68,69.93,51.65c3,1.97,4.64,1.25,8.07-0.71s50.02-28.63,61.53-35.18
		c11.51-6.55,67.45-41.01,69.11-42.43c4.21-3.6,0.47-5.39,0.47-5.39"/>
	<path class="st0" d="M21.16,250.33c2.62-0.98,52.76-19.83,64.64-25.24s44.2-15.25,52.26-18.33c8.06-3.07,19.63-5.98,20.8-6.53
		s1.87,0.11,2.03,3s0.27,16.36,3.66,39.49s2.62,33.78,2.69,38.1c0.08,4.33-0.6,4.53-2.94,5.53c-2.34,1-34.83,16.58-52.62,24.21
		c-17.79,7.63-66.89,29.06-69.65,30.46c-2.75,1.4-4.01,0.74-4.45-2.72c-0.44-3.46-3.5-13.86-6.5-24.61
		c-3-10.76-3.91-16.85-5.14-25.37c-1.24-8.52-6.84-26.91-8.13-30.62C16.54,253.99,14.9,252.68,21.16,250.33z"/>
	<path class="st0" d="M129.4,363.97c0,0,8.46,6.81,10.43,9.1c1.98,2.28,10.26,7.71,10.26,7.71s20.11-12.38,26.93-16.34
		c6.82-3.95,24.85-10.45,22.05-12.63c-2.81-2.18-19.41-11.34-20.95-12.27c-1.54-0.93-8.08,0.74-11.68,3.44
		S129.4,363.97,129.4,363.97z"/>
	<path class="st0" d="M183.35,329.01l7.24-4.47l7.97-5.08l7.62-4.49l-2.89-1.58l-7.75,4.54l-2.59-1.35l-8.31,5.04l2.6,1.19l8.3-4.87
		l3.02,1.53l-7.97,5.08l-3.35-1.74l-7.01,4.29L183.35,329.01l-6.88-4.21l-11.11,6.38l4.19-2.4l6.63,4.41l-13.26,7.65l-6.37-4.59
		l2.33-1.34l-52.72,30.27l7.09,4.29l-6.43,3.91l-7.54-4.24l4.05-2.33l-9.76,5.61l7.33,4.57l-5.84,3.57l-7.54-4.66l-6.19,3.55
		l13.8-7.92l-7.02-4.42l-3.47,1.97l12.1-6.87l6.61,4.61l7.49-4.3l-6.21-4.79l-3.33,1.89l9.91-5.63l6.06,4.83l6.94-3.99l-5.61-5.05
		l-3.61,2.05l9.02-5.12l5.99,4.8l7.42-4.26l-5.65-4.94l-3.27,1.86l9.75-5.54l5.24,5.14l8.48-4.87l-5.95-4.69l-3.58,2.04l9.89-5.62
		l6.57,4.29l6.49-3.73l-6.08-4.54l-2.85,1.62l9.06-5.15l5.86,4.62l7.75-4.45l-6.87-4l-2.51,1.43l7.37-4.19l7.07,3.86l6.11-3.51
		l-7-3.9l-1,0.61l10.54-5.99l-5.21,2.96l-5.32-3.14l-1.51,0.8l1.51-0.8l4.97-2.65l-10.63,5.67l5.65,3.15l-6.38,3.62l-5.71-3.35
		l2.89-1.54l-9.55,5.09l6.2,3.31l-6.71,3.81l-5.66-3.83l2.48-1.32l-8.69,4.63l5.29,4.26l-7.1,4.03l-4.98-4.68l2.94-1.57l-10.86,5.79
		l5.98,4.4l-7.35,4.18l-5.67-4.82l2.94-1.56l-9.68,5.16l5.83,4.97l-6.24,3.54l-6.06-5.07l3.62-1.93l-10.7,5.7l5.88,5.43l-6.69,3.8
		l-6.79-5.18l3.73-1.99l-11.24,5.98l7.29,5.16l-8.66,4.92l-8.15-5.01l5.31-2.83l-5.31,2.83l-8.26,4.4l8.42,5.15l-10.11,5.75
		l-7.64-5.93l13.32-7.09l-7.65-4.84L88.18,349l-5.62,2.85l7.2,4.83l7.92-4.22l-6.1-5.19l11.01-5.59l-3.54,1.8l6.15,4.97l7.16-3.81
		l-6.29-4.72l10.55-5.35l-3.71,1.88l6.86,4.24l6.26-3.33l-6.32-4.35l11.36-5.76l-4.54,2.3l5.77,4.47l7.81-4.16l-5.54-4.39
		l10.11-5.13l-3.09,1.57l5.67,4.14l7.06-3.76l-5.96-3.82l9.46-4.8l-3.55,1.8l5.52,3.9l7.49-3.99l-5.85-3.54l8.89-4.51l-3.31,1.68
		l6.03,3.31l7.69-4.09l-6.44-2.9l7.02-3.56l-4.97-2.5l-5.78,2.9l4.71,2.66l-4.94,2.5l-4.71-2.65l-5.61,2.86l4.64,2.67l-6.81,3.46
		l-4.5-2.73l-6.37,3.22l4.57,2.7l-6.85,3.47l-4.26-3.02l-6.54,3.09l4.74,3l-7.56,3.83l-5.22-3.06l-7.36,3.45l4.56,3.68l-6.43,3.26
		l-5.49-3.54l-6.6,2.98l5.65,3.83l-7.58,3.85l-5.44-4.34l-7.67,3.47l6.14,4.41L88.18,349l-6.59-4.42L71.39,349l6.52,5.21l-9.6,4.87
		l-9.53,4.83l9.53-4.83l-7.2-5.42l-10.67,4.83c0,0,4.33-1.96,10.67-4.83c16.45-7.44,46.47-21.02,50.02-22.62
		c4.92-2.21,28.79-13.46,33.29-15.61c4.5-2.16,31.64-16.13,31.92-16.16c0.08-0.01,20.27,10.29,23.64,12.03l-23.53,13.51
		L183.35,329.01c-14.61,8.51-31.46,18.23-36.61,20.8c-9.65,4.83-58.06,34.63-58.06,34.63l-8.24-5.59l-6.55-4.45l-7.4-5.02l-8.25-5.6
		l-7.81-5.3"/>
	<path class="st0" d="M120.09,259.75c0,0-6.88,1.21-7.93,2.74s2.76,18.14,3.51,20.97s2.76,5.37,4.3,6.8
		c1.54,1.43,3.53,1.61,3.53,1.61s6.18-0.87,8.87-1.49c2.69-0.62,17.97-6.05,17.97-6.05s-2.71-0.05-4.78-1.31s-3.13-3.7-3.13-3.7
		s7.41-0.74,12.48-1.58s7.14-2.38,7.14-2.38s-5.2-1.07-7.39-5.78c-2.18-4.71-4.98-12.52-5.91-16.93c-0.93-4.41-1.6-6.24-1.6-6.24
		s-11.47,2.09-16.93,3.34s-12.4,3.18-12.4,3.18L120.09,259.75c0,0,3.99-0.65,7.95-1.29c0,0-0.51-0.64-0.61-1.41
		c-0.1-0.77,0.47-1.52,1.11-1.63c0.65-0.11,1.75,0.13,1.89,1.62c0.14,1.5,0.17,1,0.17,1c-0.82,0.13-1.69,0.27-2.55,0.41
		c0.87-0.14,1.73-0.28,2.55-0.41c1.18-0.19,2.27-0.37,3.14-0.51l-1.29-1.01c0,0,5.39-0.88,9.53-1.79c-4.14,0.91-9.53,1.79-9.53,1.79
		l1.29,1.01c0.84-0.14,1.48-0.24,1.8-0.3c1.9-0.32,2.76,0.11,2.96,1.85c0.05,0.41,0.29,1.75,0.64,3.56c0,0,3.36-0.43,5.44-1.26
		c-2.08,0.83-5.44,1.26-5.44,1.26c0.48,2.5,1.15,5.89,1.76,8.96c0,0,4.74-1.47,6.87-2.85c-2.14,1.38-6.87,2.85-6.87,2.85
		c0.83,4.14,1.55,7.7,1.55,7.7"/>
	
		<ellipse transform="matrix(0.9775 -0.2111 0.2111 0.9775 -53.9686 31.2905)" class="st0" cx="119.56" cy="268.4" rx="1.51" ry="1.37"/>
	<path class="st0" d="M119.3,275.97c-0.2-1.17,0.43-2.03,1.56-2.21s1.53,0.59,1.63,1.18c0.1,0.58-0.69,1.97-1.48,2.1
		C120.22,277.16,119.44,276.79,119.3,275.97z"/>
	<path class="st0" d="M123.65,267.38c3.6-0.55,8.12-1.51,9.28-2.21"/>
	<path class="st0" d="M126.92,274.39c3-0.2,5.92-0.49,9.33-2.21"/>
	<path class="st0" d="M131.09,283c-0.53,0.64-2.19,1.57-3.18,1.58c-0.99,0.02-0.67-0.74-0.29-1.7c0.39-0.97,1.88-2.57,3.54-2.55
		c1.66,0.02,2.24,1.53,3.28,1.5c1.04-0.02,2.37-1,2.37-1"/>
</g>
</svg>
