<?xml version="1.0" encoding="utf-8"?>
<!-- Generator: Adobe Illustrator 26.2.1, SVG Export Plug-In . SVG Version: 6.00 Build 0)  -->
<svg version="1.1" id="brother-woos" xmlns="http://www.w3.org/2000/svg" xmlns:xlink="http://www.w3.org/1999/xlink" x="0px"
	 y="0px" viewBox="0 0 396.39 410" style="enable-background:new 0 0 396.39 410;" xml:space="preserve">
<style type="text/css">
	.st0{fill:none;stroke:#FFFFFF;stroke-width:0.5;stroke-linecap:round;stroke-linejoin:round;stroke-miterlimit:10;}
</style>
<path id="man" class="st0" d="M294.75,389.9c0,0-9.8-76.91-10.44-86.92s1.92-20.03,17.9-21.3s24.29-5.75,30.68-11.29
	s20.87-12.36,20.87-12.36l-2.56-4.69c0,0,8.69-9.52,11.35-13.07s5.24-5.32,9.41-8.78c4.17-3.46,8.34-8.43,8.52-16.42
	s-6.48-19.52-9.05-25.82s-7.81-16.33-12.6-20.76s-24.76-16.15-30.97-20.59s-25.91-26.35-30.7-30.7s-12.24-9.79-13.94-10.89
	c-1.3-0.85-3.66-1.6-4.54-0.8c-0.89,0.8-0.36,1.87-0.02,2.52c0.6,1.16,3.06,4.28,7,4.13c2.46-0.1,1.74-2.84,0.16-4.01
	c1.58,1.17,2.29,3.91-0.16,4.01c-3.94,0.16-6.4-2.97-7-4.13c0,0-0.93,1.27,1.12,4.02c2.04,2.75,6.15,6.17,7.73,7.75
	c1.58,1.58,4.44,4.82,4.44,4.82s2.53,2.4,3.5,3.52s1.1,1.57,1.18,2.61s0.29,4.43,0.54,5.49s1.3,3.64,4.33,6.92
	c-3.02-3.27-4.08-5.86-4.33-6.92s-0.46-4.45-0.54-5.49s-0.21-1.49-1.18-2.61c-0.97-1.12-3.5-3.52-3.5-3.52s-6.4-2.15-10.83-2.35
	c-2.53-0.11-4.06,0-4.06,0s-0.87,3.42-3.21,4.13c-2.51,0.77-5.76,0.31-6.95-0.19c1.19,0.5,4.44,0.96,6.95,0.19
	c2.34-0.72,3.21-4.13,3.21-4.13s-2.66,0.1-5.43,0.33s-4.59,1.25-5.01,1.76c-0.44,0.54-0.1,1.46,0.29,1.86
	c0.95,0.96,2.09,2.35,8.32,2.98c6.24,0.63,8.69,1.89,10.96,3.46c3.37,2.33,8.2,2.98,8.2,2.98s-4.82-0.65-8.2-2.98
	c0,0-5.08,0.26-8.58,0.54s-6.65,1.37-6.65,1.37s2.01,4.33-5.01,7.43c7.03-3.09,5.01-7.43,5.01-7.43s-3.37,1.17-6.42,2.51
	s-3.84,2.81-3.2,3.7c1.27,1.75,3.22,1.65,4.21,1.29c0,0,1.22,0.58,4.08,0.51s6.95-1.01,9.56-1.72c0,0,2.23-0.05,3.96,0.03
	c1.72,0.08,3.96-0.05,3.96-0.05s-6.39,2.91-10.3,5.27c0,0,1.37,5.65-1.19,8.11c2.55-2.46,1.19-8.11,1.19-8.11s-4.3,2.7-6.26,5.71
	s1.21,4.78,3.81,3.69s5.89-3.38,10.2-5.02s6.42-1.52,6.42-1.52s-1.67-1.48-2.53-2.66c-1.82-2.53-0.93-4.13-0.93-4.13
	s-0.37-0.75-0.43-1.34c-0.27-2.76,2.44-4.33,5.94-2.29c1.46,0.85,1.97,1.21,3.03,2.09c0,0,8.11,7.91,13.36,9.6
	c-5.24-1.69-13.36-9.6-13.36-9.6c0.71,0.66,2.33,2.29,0.96,4.01c-1.43,1.73-5.68,1.48-9.5-2.47c0,0-0.89,1.6,0.93,4.13
	c0.85,1.18,2.53,2.66,2.53,2.66s5.45,6.14,6.61,8.38c1.16,2.24,3.56,5.72,9.01,9.29c5.44,3.56,9.53,6.28,12.89,13.33
	s8.12,14.33,11.61,18.21c3.48,3.88,10.37,8.04,10.37,8.04s9.47-4.52,16.45-4.12c-6.98-0.4-16.45,4.12-16.45,4.12
	s-11.95,2.84-19.29,5.32c0,0,14.26,11.16,19.95,21.5s9.07,20.33,9.07,20.33s-3.39-9.99-9.07-20.33
	c-5.69-10.34-19.95-21.5-19.95-21.5s-12.82,3.72-18.81,8.79c-6,5.07-10.75,5.27-19.02,3.62s-18.12-1.02-22.95,1.34
	c-9.3,4.55-17.03,14.53-17.03,14.53l-9.19-13.96c0,0,6.31-0.7,7.55-3.84c2-5.09-0.37-6.94-0.46-8.52c-0.09-1.58,1.07-2.6,0.6-3.38
	s-2.04,0.23-2.36-0.79c-0.32-1.02,0.28-2.5,0.88-2.74c0.6-0.23,1.3-0.74-0.51-2.23c-1.81-1.48-2.36-2.36-2.36-2.36
	s3.11-0.19,4.4-0.46c1.3-0.28,1.62-1.39-0.32-2.64c-1.95-1.25-5.14-2.35-6.37-5.56c-1.23-3.2-1.29-5.05-3.94-7.82
	s-4.86-3.94-4.86-3.94s-0.14,2-1.06,2.89s-0.13,4.14,1.05,5.57c0,0,2.01-0.16,2.84-0.38s3.22-0.25,3.82,0.54
	c0.61,0.8-0.1,1.18-1.43,1.21c-1.34,0.03-2.73,0.32-3.23,0.44c-0.54,0.12-0.72,0.2-0.72,0.2l0.2-0.4c0,0,0.35-0.16,0.89-0.31
	c0.72-0.2,1.65-0.26,2.35-0.29c0.7-0.03,1.54,0.07,1.66-0.2c0.12-0.27,0.23-0.5-0.4-0.75s-1.76-0.3-2.84-0.08s-2.49,0.36-2.49,0.36
	l0.44,0.42c0,0,0.69-0.08,1.29-0.2c0.6-0.12,2.01-0.56,3.05-0.3c1.04,0.26,0.73,0.27,0.65,0.35s-0.83-0.08-1.53-0.03
	s-1.54,0.21-2.14,0.4c-0.6,0.18-1.34,0.26-1.34,0.26l-1.07-1.23c0,0,0.73,1.14,1.56,2.66c1.13,2.05,1.27,3.51,1.21,4.26
	s-0.42,2.31-0.42,2.31s1.31,0.99,2.62,0.93c0.84-0.04,2.29-0.22,2.09-3.63c0.2,3.41-1.25,3.6-2.09,3.63
	c-1.31,0.06-2.62-0.93-2.62-0.93s-1.75,4.09-1.56,7s1.42,5.93,3.86,10.25c2.45,4.32,0.38,10.94-3.33,13.12s-5.78,5.5-6.35,8.01
	s-1.76,4-1.76,4s15.16,1.72,23.75-1.84c-8.59,3.56-23.75,1.84-23.75,1.84c-1.8,1.74-4.98,3.87-8.61,3.49s-4.89,0.13-7.02,1.34
	c-2.13,1.21-4.18,2.21-7.06,2.21s-7.39-1.34-9.27-3.51s-2.09-4.47-1.88-5.43c0.21-0.96,2.92-4.39,7.69-3.97
	c4.76,0.42,7.39,2.63,11.57,0.54c4.18-2.09,4.6-3.38,5.39-5.64s3.17-5.31,6.52-6.89c3.34-1.59,5.43-4.18,3.17-10.65
	s0.75-12.24-1.25-16.13c-2.01-3.89-5.1-9.29-0.71-14.91c-4.39,5.62-1.3,11.03,0.71,14.91c2.01,3.89-1,9.65,1.25,16.13
	s0.17,9.07-3.17,10.65c-3.34,1.59-5.72,4.64-6.52,6.89c-0.79,2.26-1.21,3.55-5.39,5.64s-6.81-0.13-11.57-0.54
	c-4.76-0.42-7.48,3.01-7.69,3.97c0,0-3.77,0.08-6.25-1.98s-2.7-4.83-2.41-5.89c0.28-1.06,2.27-4.12,6.25-5.18s10.15,0.43,13.06-0.43
	c2.91-0.85,5.54-3.9,4.47-7.03c-1.06-3.12-3.05-7.24,1.21-10.58c4.26-3.34,6.03-6.96,4.54-9.8s-3.41-3.19-3.34-6.89
	s2.56-8.09,7.31-11.22c-4.76,3.12-7.24,7.52-7.31,11.22s1.85,4.05,3.34,6.89c1.49,2.84-0.28,6.46-4.54,9.8s-2.27,7.45-1.21,10.58
	c1.06,3.12-1.56,6.18-4.47,7.03s-9.09-0.64-13.06,0.43c-3.98,1.06-5.96,4.12-6.25,5.18c0,0-4.83,1.28-8.94-1.7
	c-4.12-2.98-3.9-6.89-3.9-6.89s9.3,2.77,15.69,0.14s3.76-7.67,6.39-11.29s4.97-1.63,6.89-6.25c1.92-4.61-2.77-9.3-2.56-12.49
	s2.2-6.67,4.4-7.95c-2.2,1.28-4.19,4.76-4.4,7.95s4.47,7.88,2.56,12.49c-1.92,4.61-4.26,2.63-6.89,6.25s0,8.66-6.39,11.29
	c-6.39,2.63-15.69-0.14-15.69-0.14s-7.45-2.41-9.94-5.89s-0.07-10.86,5.68-7.81s11.93,5.18,18.39,0.07
	c6.46-5.11,5.04-9.65,4.12-14.27c-0.92-4.61,5.47-13.56,11.29-13.91s6.25-0.35,6.25-0.35s1.49-1.56,4.19-3.48s6.03-2.48,9.94-2.06
	c3.9,0.43,7.59,1.66,9.96,3.07c1.59,0.94,2.29,2.91,2.29,2.91s-0.69-1.97-2.29-2.91c-2.37-1.41-6.05-2.64-9.96-3.07
	c-3.9-0.43-7.24,0.14-9.94,2.06s-4.19,3.48-4.19,3.48s-0.43,0-6.25,0.35s-12.21,9.3-11.29,13.91c0.92,4.61,2.34,9.16-4.12,14.27
	c-6.46,5.11-12.64,2.98-18.39-0.07s-8.16,4.33-5.68,7.81s9.94,5.89,9.94,5.89s-0.21,3.9,3.9,6.89c4.12,2.98,8.94,1.7,8.94,1.7
	c-0.28,1.06-0.07,3.83,2.41,5.89c2.48,2.06,6.25,1.98,6.25,1.98c-0.21,0.96,0,3.26,1.88,5.43c0,0-2.72,1.05-5.4,1
	c-2.69-0.05-8.67-1.04-14.04-4.9s-10.7-8.51-14.25-12.5s-7.8-8.96-18.8-13.92c-11-4.97-19.95-4.79-19.95-4.79
	s-10.89,9.4-14.34,21.43s-3.11,26.71-3.11,26.71s-0.34-14.67,3.11-26.71s14.34-21.43,14.34-21.43s-2.85-2.64-5.21-4.06
	c-2.37-1.42-5-2.23-7.1-4.33s-4.19-6.42-7.24-9.13s-6.76-4.53-9.47-5c0,0,8.33-6.37,14.06-19.97c5.74-13.6,5.74-24.12,12.01-29.32
	c6.27-5.21,9.46-6.48,15.19-7.54c5.74-1.06,12.43-5.74,16.04-11.26c3.61-5.52,7.45-11.38,10.02-13.77c2.57-2.38,6.37-5.04,8.21-6.05
	c1.83-1.01,1.97-4.13-0.55-4.68s-6.1,1.61-7.8,3.58s-2.66,6.51,0.14,7.15c-2.8-0.64-1.83-5.18-0.14-7.15s5.27-4.13,7.8-3.58
	c0,0-1.97-1.24-7.06,0.18s-5.4,4.41-11.65,5.64c-3.26,0.64-4.35,0.28-6.05,0.23c-4.63-0.14-8.07,1.1-13.21,4.77
	c5.14-3.67,8.58-4.91,13.21-4.77c0,0,5.94-5.98,7.33-7.48c1.39-1.51,3.28-3.69,4.4-5.28c0.91-1.29,1.74-3.5,1.74-3.5
	s1.49,1.95,4.33,3.17s8.56,2.77,11.38,2.26c-2.74-0.97-6.6-3.61-4.72-9.23c-1.88,5.62,1.98,8.26,4.72,9.23c0,0,1.59,0.65,2.52-0.43
	s-1.55-5.08-3.64-6.92s-3.5-2.74-5.37-3.93c-1.88-1.19-7.03-3.82-11.32-3.06s-7.25,3.46-14.42,10.38
	c7.18-6.92,10.13-9.63,14.42-10.38c4.29-0.76,9.45,1.88,11.32,3.06c0,0,3.91,0.88,7.12-0.01c3.21-0.88,3.33-2.53,3.33-2.53
	s2.85-2.13-0.16-3.61c-3.01-1.48-8.43-1.24-8.43-1.24s0.48,4.41,4.05,4.94c3.57,0.52,4.53-0.08,4.53-0.08s-0.96,0.6-4.53,0.08
	c-3.57-0.52-4.05-4.94-4.05-4.94s-4.01,0.06-4.78-0.01c-0.77-0.08-7.06-0.51-9.45-0.61c-2.4-0.1-3.87,0.6-5.37,1.23
	c-1.5,0.63-4.93,2.91-4.93,2.91s3.44-2.28,4.93-2.91c1.5-0.63,2.97-1.33,5.37-1.23s8.69,0.53,9.45,0.61c0,0,2.45-1.72,2.73-2.96
	c0.28-1.25,0-2.53-1.89-2.49s-7.26,2.6-7.26,2.6s0.28,1.57,3.45,0.68s5.21-2.12,5.56-2.51c-0.36,0.39-2.4,1.62-5.56,2.51
	c-3.17,0.89-3.45-0.68-3.45-0.68l-3.27,1.85c0,0,2.17-1.32,2.56-2.49s-0.39-1.89-1.39-1.96c-0.71-0.36-2.61,0.1-6.95,3.66
	c0,0,0.4,1.22,3.35-0.03c2.95-1.25,3.67-2.63,3.59-3.63c0.07,1-0.64,2.38-3.59,3.63s-3.35,0.03-3.35,0.03s-3.78,3.32-6.88,6.58
	c-3.09,3.26-14.08,11.87-17.51,15.34s-9.53,9.24-14.17,14.17s-6.81,9.61-15.46,15.17s-18.16,11.31-26.76,22.16
	s-9.5,21.18-14.07,28.51s-5.69,17.21-3.44,24.99c2.24,7.78,12.27,16.99,17.29,23.87s13.77,18.41,20.8,24.92s17.81,13.84,17.81,13.84
	s14.52,10.03,31.36,19.98s26.53,12.75,30.98,22.82c11.3,25.55,15.61,85.11,15.61,85.11"/>
<path id="brush" class="st0" d="M330.1,78.75c0,0-0.84-0.93-3.91-2.35c-1.51-0.7-4.55-0.83-6.08-0.13
	c-3.33,1.51-7.15,6.66-11.49,6.8s-8.21,0.83-9.25-1.24c0,0-0.38,4.17,2.27,5.1c4.1,1.44,8.07,0.14,11.18-2.41
	c3.91-3.2,9.35-8.43,13.38-8.12c-4.03-0.31-9.47,4.93-13.38,8.12c-3.11,2.55-7.08,3.85-11.18,2.41c0,0,0.29,3.25,2.78,4.3
	s8.94-0.62,13.77-5.93C323.02,80,326.6,77.4,330.1,78.75c-3.5-1.36-7.08,1.25-11.92,6.56c-4.83,5.31-11.28,6.98-13.77,5.93
	c0,0,2.53,2.27,5.04,2.29c2.51,0.01,5.94-1.2,7.97-2.87s3.81-3.31,4.89-4.81c1.08-1.5,2.39-3.17,3.76-3.94
	c1.37-0.77,3.72-1.08,5.02-1c-1.29-0.08-3.65,0.23-5.02,1s-2.67,2.44-3.76,3.94c-1.08,1.5-2.87,3.14-4.89,4.81s-5.45,2.89-7.97,2.87
	c0,0,5.9,2.18,10.22-0.39c4.32-2.56,6.34-5.66,7.19-7.44s2.61-3.46,4.4-3c-1.79-0.46-3.55,1.21-4.4,3s-2.87,4.88-7.19,7.44
	c0,0,5.38-0.6,7.51-4.19s3.12-4.98,3.79-5.07C331.64,83.79,331.08,78.79,330.1,78.75c0.97,0.04,1.54,5.04,0.87,5.13
	c0,0,0.19,0.72,0.77,0.69s7.52-0.9,8.13-0.98c0.61-0.08,0.16-2.45-0.07-3.42s-1.6-3.03-2.32-2.92c0.72-0.1,2.09,1.96,2.32,2.92
	c0.23,0.97,0.68,3.34,0.07,3.42c0,0,16.65-1.97,23.38-0.96s11.26-1.09,13.75-1.99s13.64-5.21,15.6-6.12s1.9-2.69-0.91-2.97
	s-9-1.27-13.72-1.75s-8.88,0.27-13.47,1.47c-4.6,1.19-27.02,5.98-27.02,5.98s-5.92,0.86-6.58,0.98
	C330.23,78.36,330.1,78.75,330.1,78.75z"/>
<g id="palate">
	<path class="st0" d="M188.79,76.97c-5.42-2.05-9.39-12.54,3.56-31.48S215.2,15.23,239.4,7.45s36.61,0.24,44.28,4.8
		c7.67,4.56,14.05,12.87,14.33,24.45s-7.04,36.51-14.57,54.15s-28.21,34.98-38.01,39.51s-19.98,5.36-29.66-1.15
		c0,0,11.43,4.79,27.34-2.98S270.39,102,280.22,84.7s15.62-41.24,13.01-54.88s-9.55-17.59-9.55-17.59s6.95,3.95,9.55,17.59
		s-3.18,37.58-13.01,54.88c-9.83,17.3-21.21,33.75-37.11,41.53s-27.34,2.98-27.34,2.98s-5.47-4.23-4.78-9.22s10.51-35.21,6.02-40.46
		c-4.5-5.25-8.64-6.26-14.97-5.31C194.48,75.37,193.49,78.77,188.79,76.97c0,0,5.96,2.56,9.11,1.92c2.95-0.6,7.27-2.63,19.11,0.65"
		/>
	<path class="st0" d="M216.68,49.07c0.7-4.72-3.7-5.1-6.86-3.91c-4.66,1.76-8.85,7.18-9.46,12.43c-0.6,5.17,5.43,3.26,5.43,3.26
		s3.46-1.68,6.37-4.84C214.09,53.93,215.3,51.69,216.68,49.07c1.38-2.62,2.22-7.04-0.22-9.45c-2.4-2.37-8-1.6-12.04,1.34
		s-9.01,9.27-10.35,14.89c-1.06,4.45,1.32,6.73,4.67,6.92c3.34,0.19,7.05-1.92,7.05-1.92"/>
	<path class="st0" d="M279.05,35.62c1.29-6.41-4.26-6.62-7.26-5.08c-4.43,2.28-9.33,7.07-9.8,12.34c-0.58,6.57,7.77,4.93,7.77,4.93
		s2.15-1.08,4.52-4.22C275.99,41.32,277.97,38.37,279.05,35.62c1.07-2.76,3.05-8.23-0.33-11.01c-3.15-2.58-8.77-2.42-15.35,2.86
		c-5.3,4.25-7.21,9.45-7.72,15.2c-0.55,6.21,2.63,8.72,5.98,8.53s8.13-3.39,8.13-3.39"/>
	<path class="st0" d="M251.68,29.34c0.84-5.65-4.01-4.35-7.73-2.9c-5.48,2.13-9.94,5.94-10.68,12.23c-0.73,6.2,6.88,5.2,6.88,5.2
		s3.48-2.24,6.91-6.04C249.33,35.32,250.58,32.33,251.68,29.34c1.23-3.32,2.56-8.34-0.29-11.21c-2.8-2.82-10.15-1.8-14.9,1.75
		s-9.8,10.66-11.41,17.39c-1.27,5.33,1.45,9.09,5.37,9.3s9.69-2.71,9.69-2.71"/>
	<path class="st0" d="M248.72,105.53c1.67-5.46-4.1-6.65-7.82-5.21c-5.48,2.13-9.83,5.35-10.57,11.64c-0.73,6.2,8.7,5.07,8.7,5.07
		s2.65-1.22,5.33-4.16C246.11,110.94,247.61,108.52,248.72,105.53c1.23-3.32,2.98-7.83,0.13-10.7c-2.8-2.82-10.2-1.25-15.52,1.36
		c-4.2,2.06-8.45,7.06-9.53,11.71c-1.25,5.34,0.53,9.13,5.58,10.29c3.37,0.78,9.65-1.16,9.65-1.16"/>
	<path class="st0" d="M239.96,77.27c-5.15-0.11-8.47-3.05-6.46-7.41c2.11-4.57,5.73-7.51,10.74-9.21c4.93-1.67,4.25,4.41,4.25,4.41
		s-0.66,3.41-3.14,6.91C243.71,74.29,242.44,75.66,239.96,77.27c-4.25,2.76-8.24,2.42-11.1,0.55c-2.82-1.85-4.31-5.1-2.56-10.43
		c1.55-4.75,6.33-8.76,11.46-10.39c4.36-1.39,7.56-0.71,9.93,1.65c2.3,2.28,0.8,6.41,0.8,6.41"/>
	<path class="st0" d="M276.18,71.89c0.48-2.39,1.27-8.74-2.86-10.33c-4.13-1.59-8.02-1.17-12.18,2.9s-6.6,8.98-7.07,12.04
		c-0.48,3.06-0.74,7.96,2.3,9.73c3.04,1.77,7.05,0.67,9.37-0.59c2.33-1.26,7.67-5.05,10.26-12.94s-4.71-7.28-7.91-4.82
		s-6.19,7.59-6.57,11.06c-0.38,3.47,0.6,6.48,6,2.77S276.18,71.89,276.18,71.89z"/>
</g>
<g id="txt1">
	<path class="st0" d="M168.52,294.44c-0.33-0.31-0.5-0.67-0.51-1.08c0-0.41,0.16-0.77,0.48-1.09l9.05-8.89l-0.24,0.24
		c-0.42,0.41-0.46,0.78-0.12,1.13l7.93,8.1c0.22,0.22,0.42,0.34,0.6,0.35c0.18,0.01,0.39-0.1,0.63-0.33l0.22-0.22l-8.21,8.06
		c-0.22,0.22-0.34,0.42-0.35,0.6c-0.01,0.18,0.1,0.4,0.34,0.64l0.22,0.22l-9.88-10.08 M177.86,277.8c-0.33-0.34-0.51-0.72-0.52-1.14
		c-0.01-0.41,0.14-0.77,0.45-1.08s0.67-0.46,1.06-0.45c0.4,0.01,0.76,0.17,1.08,0.5l19.15,19.67"/>
	<path class="st0" d="M220.2,287.18"/>
	<g>
		<path class="st0" d="M239.9,256.79c-0.02,0.65,0.18,1.19,0.6,1.61c0.41,0.43,0.95,0.66,1.62,0.7h0.19
			c1.33,0.03,2.49,0.34,3.5,0.92c1,0.58,1.78,1.36,2.34,2.33c0.56,0.98,0.82,2.1,0.79,3.37c-0.03,1.23-0.35,2.32-0.95,3.27
			c-0.61,0.95-1.42,1.68-2.45,2.19c-1.03,0.52-2.21,0.76-3.54,0.72c-1.31-0.03-2.46-0.34-3.47-0.9c-1-0.57-1.78-1.34-2.34-2.32
			s-0.82-2.08-0.79-3.31c0.04-1.61,0.54-2.96,1.49-4.07c0.95-1.1,2.19-1.79,3.71-2.07c0.55-0.1,1.11-0.16,1.72-0.14"/>
		<path class="st0" d="M228.77,280.73c-0.01-0.46,0.13-0.83,0.42-1.1c0.29-0.27,0.66-0.41,1.12-0.39l12.08,0.31l0.11-4.45
			c0.01-0.46-0.12-0.83-0.39-1.12s-0.64-0.44-1.09-0.45c-0.46-0.01-0.83,0.12-1.13,0.39c-0.3,0.27-0.45,0.64-0.46,1.1v0.06v-0.06
			c0.01-0.46,0.17-0.83,0.46-1.1c0.3-0.27,0.67-0.41,1.13-0.39c0.46,0.01,0.82,0.16,1.09,0.45c0.27,0.29,0.4,0.66,0.39,1.12
			l-0.11,4.45l10.65,0.28c0.27,0.01,0.45-0.06,0.53-0.19c0.09-0.13,0.17-0.27,0.26-0.4s0.25-0.2,0.5-0.19c0.19,0,0.34,0.07,0.46,0.2
			c0.12,0.13,0.18,0.29,0.18,0.47c-0.01,0.46-0.24,0.68-0.67,0.67"/>
	</g>
	<path class="st0" d="M266.35,268.87c0.23-0.42,0.53-0.7,0.91-0.82c0.38-0.13,0.76-0.09,1.14,0.12s0.63,0.51,0.73,0.9
		c0.11,0.39,0.05,0.8-0.18,1.22l-2.41,4.44l-4.32-2.37l4.32,2.37l-3.59,6.62c-0.15,0.28-0.2,0.5-0.16,0.68s0.21,0.35,0.5,0.51
		l0.27,0.15l-4.65-2.55c-0.27-0.15-0.5-0.2-0.68-0.16s-0.35,0.21-0.51,0.51l-0.15,0.28l6.75-12.3c0.23-0.42,0.29-0.83,0.18-1.22
		c-0.11-0.39-0.35-0.69-0.73-0.9s-0.76-0.25-1.14-0.12s-0.68,0.4-0.91,0.82"/>
	<path class="st0" d="M275.04,272.27c0.23-0.42,0.53-0.7,0.91-0.82c0.38-0.13,0.76-0.09,1.14,0.12s0.63,0.51,0.73,0.9
		c0.11,0.39,0.05,0.8-0.18,1.22l-2.98,5.49l-4.59-2.52l4.59,2.52l-3.44,6.34c-0.15,0.28-0.2,0.5-0.16,0.68s0.21,0.35,0.5,0.51
		l0.27,0.15l-4.92-2.7c-0.27-0.15-0.5-0.2-0.68-0.16s-0.35,0.21-0.51,0.51l-0.15,0.27l6.6-12.01c0.8-1.47,0.86-1.88,0.75-2.27
		c-0.11-0.39-0.35-0.69-0.73-0.9s-0.76-0.25-1.14-0.12s-0.68,0.4-0.91,0.82"/>
	<path class="st0" d="M281.03,271.82c0.23-0.42,0.54-0.7,0.93-0.83c0.39-0.13,0.78-0.09,1.16,0.12s0.63,0.51,0.74,0.89
		s0.06,0.78-0.16,1.18l-5.56,10.23l4.07,2.23c0.22,0.12,0.4,0.14,0.55,0.07s0.29-0.15,0.44-0.22s0.32-0.06,0.52,0.05
		c0.15,0.08,0.24,0.21,0.29,0.39c0.04,0.18,0.02,0.35-0.07,0.52c-0.09,0.16-0.22,0.27-0.39,0.32c-0.17,0.05-0.33,0.03-0.47-0.04
		c0.15,0.08,0.3,0.09,0.47,0.04s0.3-0.16,0.39-0.32c0.09-0.17,0.11-0.34,0.07-0.52c-0.04-0.18-0.14-0.31-0.29-0.39
		c-0.2-0.11-0.37-0.13-0.52-0.05c-0.15,0.07-0.29,0.15-0.44,0.22s-0.33,0.05-0.55-0.07l-4.07-2.23l-7.53,13.87"/>
	<path class="st0" d="M223.88,284.51l-5.22-15.74l-3.41-10.28c-0.14-0.42-0.38-0.71-0.72-0.88s-0.72-0.19-1.13-0.05
		c-0.43,0.14-0.74,0.39-0.92,0.74c-0.18,0.35-0.2,0.73-0.06,1.14c-0.14-0.42-0.12-0.8,0.06-1.14c0.18-0.35,0.49-0.59,0.92-0.74
		c0.41-0.14,0.79-0.12,1.13,0.05c0.34,0.17,0.58,0.47,0.72,0.88l3.41,10.28l-5.88,1.96l-2.77-8.35c-0.14-0.44-0.39-0.74-0.75-0.92
		s-0.74-0.2-1.15-0.06c-0.43,0.14-0.74,0.39-0.92,0.75s-0.19,0.75-0.05,1.19c-0.14-0.44-0.13-0.83,0.05-1.19
		c0.18-0.36,0.48-0.61,0.92-0.75c0.41-0.14,0.8-0.12,1.15,0.06s0.6,0.49,0.75,0.92l2.77,8.35l4.81,14.52L213.53,273
		c-0.07,0.99-0.9,2.25-1.49,3.27c-0.59,1.01-1.41,1.99-2.44,2.93s-2.23,1.8-3.58,2.58s-2.81,1.43-4.39,1.96l-2.28,0.76l0.67-0.22
		c0.94-0.34,1.2-0.96,0.88-1.81l-3.94-11.94c-0.31-1-0.84-1.25-1.62-0.97c-0.43,0.14-0.74,0.4-0.91,0.78s-0.17,0.78-0.01,1.21
		c-0.16-0.43-0.16-0.83,0.01-1.21s0.47-0.64,0.91-0.78l7.42-2.47c0.26-0.09,0.4-0.2,0.42-0.36c0.03-0.15,0.06-0.31,0.09-0.46
		c0.04-0.15,0.17-0.27,0.41-0.35c0.18-0.06,0.35-0.04,0.51,0.05c0.16,0.09,0.27,0.21,0.32,0.37c0.06,0.18,0.05,0.35-0.02,0.52"/>
</g>
<g id="txt2">
	<g>
		<path class="st0" d="M296.51,294.54c0.49-0.01,0.92,0.17,1.28,0.53c0.37,0.37,0.55,0.81,0.54,1.32c-0.01,0.51-0.19,0.94-0.57,1.31
			c-0.36,0.36-0.79,0.53-1.29,0.51c-0.49-0.02-0.92-0.21-1.29-0.59c-0.36-0.36-0.53-0.79-0.53-1.27c0-0.48,0.19-0.9,0.55-1.26
			C295.58,294.74,296.02,294.55,296.51,294.54z M292.57,303.55l0.22-1.51l0.71-0.7l0,0l-0.71,0.7l-1.52,0.19 M294.41,305.09
			l0.22-1.51l0.71-0.7l0,0l-0.71,0.7l-1.52,0.19"/>
		<polyline class="st0" points="301.88,297.19 300.44,298.55 299.24,297.31 300.44,298.55 298.65,300.26 297.48,299.03 
			298.65,300.26 296.06,302.74 		"/>
	</g>
	<g>
		<path class="st0" d="M300.54,306.51l-1.62-2.28l5.56-3.71l1.31,2.01 M298.53,306.64l-1.95,1.26l1.24,1.9"/>
		<path class="st0" d="M303.46,306.14"/>
		<polyline class="st0" points="306.93,304.06 303.53,306.21 302.3,304.26 303.53,306.21 300.13,308.36 		"/>
	</g>
</g>
<g id="monitor">
	<path class="st0" d="M63.76,247.26l-8.31,0.61c0,0-22.06,33.36-27.32,42.32S4.41,330.88,4.41,330.88l11.98,18.73l-4.17,6.54
		c0,0,4.81,7.46,7.11,9.91s5.56,5.84,5.56,5.84l3.65-4.52l4.73,8.92l-4.82,6.44l1.79-0.99c0,0,6.76,10.37,9.03,13.7
		s8.31,10.03,8.31,10.03s0.91-1.62,2.25-3.69c0.74-1.14,1.61-2.41,2.53-3.63c0.58-0.76,1.22-1.73,1.87-2.78c0,0,3.91,6.25,4.96,7.76
		c-1.05-1.51-4.96-7.76-4.96-7.76c1.02-1.65,2.06-3.5,2.9-5.04c1.04-1.9,1.76-3.34,1.76-3.34s-3.88-7.73-6.95-13.17
		c-3.09-5.49-6.32-11.2-7.31-12.21c-0.99-1.01-3.73,3.83-3.73,3.83l-5.31-9.42l1.44-2.09l-6.84-10.97l-3.79-6.08l-1.97,2.29
		c0,0-1.42-3.34-2.85-5.14s-2.06-2.99-2.06-2.99S37.41,300,43.97,289.17c6.57-10.83,20.18-34.15,20.18-34.15s0.83,2.06,1.58,3.18
		s1.59,2.13,1.59,2.13l2.57-4.46c0,0-4.92-7.82-5.27-8.2c-0.34-0.39-1.14-0.62-1.68,0.26c-0.54,0.88-11.7,19.75-16.06,26.99
		c-4.36,7.23-14.71,23.91-19.4,31.86s-10.16,16.76-11.82,19.17s-3.42,4.64-3.42,4.64s-2.74-0.76-5.88,0.2
		c3.14-0.96,5.88-0.2,5.88-0.2l8.22,13.76l-4.08,5.25l4.08-5.25l3.97-5.16l1.97-2.29l3.79,6.08l6.84,10.97l-1.44,2.09l-3.84,6.02
		l-2.98,4.92l3.31-4.54l4.98,8.72l-3.8,5.13l3.8-5.13l3.84-5.71c0,0,2.74-4.84,3.73-3.83c0.99,1.01,4.22,6.71,7.31,12.21
		c3.07,5.45,6.95,13.17,6.95,13.17s-0.73,1.43-1.76,3.34l4.59,7.69c0,0,1.19-6.25,5.66-14.45s17.51-35.19,22.96-46.01
		c5.46-10.82,11.55-23.71,11.55-23.71l-2.51-3.97c0,0-11.27,21.96-13.7,26.37s-22.31,39.59-22.31,39.59s-4.24-1.88-9.27-10.76
		c-5.03-8.87-8.51-15.65-12.81-21.35s-8.46-9.29-9.33-11.11c-0.88-1.82-0.35-3.65-0.35-3.65l-1.24,1.98c0,0,14.85-30.76,24.61-48.31
		c9.75-17.55,12.11-21.93,12.11-21.93s5.2-8.98,5.92-10.13c0.72-1.16,2.09-1.22,4.17,1.56s6.93,8.81,16.72,25.95S105,297,105,297
		l-5.25,12.26l1.83-2.34l3.82,8.38l-7.34,16.45l-3.5,6.8c0,0,0.64,0.55,1.16,1.64c0.53,1.09,5.25,10.91,5.66,11.65
		s-0.17,0.96-1.04,3.45c-0.87,2.49-11.76,32.61-11.76,32.61l-9.08-17.12l9.08,17.12l-5.61-0.83l-6.29-10.38l2.73-6.16l15.15-31.98
		L79.42,370.5l-2.73,6.16c0,0-6.65,13.96-8.4,17.34c-1.74,3.39-2.44,4.61-2.44,4.61l-1.83,3.25l-1.82,2.69c0,0-1.47,0.88-5.11,1.03
		s-5.31,0.64-5.86-0.68s-1.4-3.13-1.4-3.13s0.86,1.81,1.4,3.13c0.55,1.32,2.22,0.83,5.86,0.68s5.11-1.03,5.11-1.03l1.82-2.69
		c0,0,41.47,3.4,43.78,3.34s3.6-0.86,4.13-3.06c0.52-2.2,10.23-33.5,13.48-41.46s7.01-21.57,7.01-21.57l-1.95-5.95
		c0,0-7.78-0.09-15.42-0.16c-8.91-0.08-16.97-1.29-16.97-1.29s8.06,1.21,16.97,1.29c7.64,0.07,15.42,0.16,15.42,0.16
		s-7.99,25.53-12.51,37.05c-4.52,11.52-4.34,15.05-5.69,19.33s-3.33,10.5-3.65,11.3s-1.12,1.57-2.96,1.42
		c-18.27-1.41-39.8-3.65-39.8-3.65"/>
	<path class="st0" d="M37.08,382.88l6.79,7.43l0.11-5.65l6.32,2.1l0.66-3.48c0,0-2.52-1.83-4.55-2s-2.6,0.36-2.6,0.36
		s0.36-3.26,0.59-3.84s0.6-1.27,0.6-1.27s-2.82,2.04-3.83,3.09s-2.18,1.92-3.2,2.41C36.93,382.53,37.08,382.88,37.08,382.88z"/>
	<path class="st0" d="M25.85,347.59c-1.02,1.38-4.34,5.8-4.94,6.62s-0.63,1.35,0.89,3.03c0.98,1.09,2.99,3.16,3.97,2.86
		c0.97-0.29,2.7-3.06,3.46-4.36c0.9-1.55,1.19-1.46,0.43-2.26c-0.76-0.8-2.76-3.47-3.18-4.04c-0.62-0.84-0.89-1.48-0.89-1.48"/>
	<path class="st0" d="M67.13,287.44c0,0-2.04,10.77-3.16,14.24s-7.19,15.27-7.19,15.27s3.19,7.27,6.37,10.05
		c3.18,2.78,8.17,5.64,8.17,5.64l0.47,2.85c0,0,2.67-0.83,3.9-1.42c1.24-0.59,4.39-0.86,5.17-1.29c0.77-0.43,0.75-1.15,0.55-2.33
		c-0.19-1.18-0.55-1.99-0.55-1.99s-3.49,0-5.67,1.2s-3.79,2.82-3.79,2.82s1.6-1.61,3.79-2.82c2.18-1.2,5.67-1.2,5.67-1.2
		s2.88-4.84,3.69-8.37s1.3-11.15,1.3-11.15s-3.58-2.21-7.59-6.82s-9.15-10.28-10.05-11.84s-1.06-1.91-1.06-1.91s0.1,7.31,1.69,14.43
		s1.78,8.62,1.78,8.62s-3.72,1.19-2.96,4.36c0.76,3.17,3.65,3.78,5.26,2.94c1.61-0.85,3.01-2.86,2.23-4.81
		c-0.77-1.95-2.22-3.07-4.53-2.49"/>
</g>
<path id="paint" class="st0" d="M50.08,44V7.56c0,0,2.53-2.11,4.1-2.36s5.12,0,5.12,0l-0.5,17.1L35.13,48.72
	c0,0,7.47,11.48,16.76,21.5s19.13,16.94,19.13,16.94l5.65-7.47c0,0-8.43-4.21-16.98-14.13S43.2,41.01,43.2,41.01
	s7.93,14.63,16.49,24.54s16.98,14.13,16.98,14.13S83.74,69,92.63,60.65c0,0-2.15-10.24-2.83-15.22s-1.62-13.74-1.62-13.74
	s-8.89-7.81-13.06-11.31c-4.18-3.5-8.35-6.6-10.37-5.66c-2.02,0.94-2.56,3.64-3.37,4.71c-0.81,1.08-2.57,2.86-2.57,2.86
	s1.76-1.78,2.57-2.86s1.35-3.77,3.37-4.71c2.02-0.94,6.2,2.15,10.37,5.66c0,0,3.5-0.74,6.11,0.44c2.62,1.18,9.07,6.02,9.55,8.42
	s3.49,4.41,6.19,7.33c2.7,2.92,7.15,7.68,8.9,9.9s2.7,6.85,1.7,12.35s-3.92,18.94-4.08,22.47s-0.16,6.57-1.68,6.79
	s-2.93-2.77-3.69-6.46s-4.46-16.03-5.5-20.96"/>
</svg>
